<?xml version="1.0" encoding="UTF-8"?>
<svg version="1.1" xmlns="http://www.w3.org/2000/svg" width="1254" height="1254">
<path d="M0 0 C413.82 0 827.64 0 1254 0 C1254 413.82 1254 827.64 1254 1254 C840.18 1254 426.36 1254 0 1254 C0 840.18 0 426.36 0 0 Z " fill="#FEFDFD" transform="translate(0,0)"/>
<path d="M0 0 C0.74940857 0.00337372 1.49881714 0.00674744 2.27093506 0.01022339 C29.770705 0.18753131 71.38355091 2.63355091 92.1875 23.4375 C92.42800903 25.95584106 92.42800903 25.95584106 92.41455078 29.17236328 C92.41432419 30.97400436 92.41432419 30.97400436 92.41409302 32.81204224 C92.40377045 34.11414642 92.39344788 35.41625061 92.3828125 36.7578125 C92.37908276 38.10016673 92.37623561 39.44252367 92.37423706 40.78488159 C92.36659744 44.319514 92.3469463 47.85398228 92.3248291 51.3885498 C92.30437765 54.9946877 92.29523685 58.60085209 92.28515625 62.20703125 C92.2637006 69.28392135 92.22956079 76.36069997 92.1875 83.4375 C88.06435942 84.94264646 83.93869298 86.44074372 79.8125 87.9375 C78.0490625 88.58138672 78.0490625 88.58138672 76.25 89.23828125 C75.12851562 89.64433594 74.00703125 90.05039062 72.8515625 90.46875 C71.81467285 90.84580078 70.7777832 91.22285156 69.70947266 91.61132812 C67.1875 92.4375 67.1875 92.4375 65.1875 92.4375 C65.1875 150.1875 65.1875 207.9375 65.1875 267.4375 C65.8475 267.4375 66.5075 267.4375 67.1875 267.4375 C67.58473267 266.55698975 67.58473267 266.55698975 67.98999023 265.65869141 C69.22762575 263.36307308 70.54855977 261.77793619 72.34765625 259.8984375 C72.9718042 259.24077393 73.59595215 258.58311035 74.23901367 257.90551758 C74.90263916 257.21482178 75.56626465 256.52412598 76.25 255.8125 C77.62313664 254.36658858 78.99553573 252.91997636 80.3671875 251.47265625 C81.02944336 250.77543457 81.69169922 250.07821289 82.37402344 249.35986328 C84.57867732 247.02283519 86.73517477 244.64644634 88.875 242.25 C94.74843795 235.67262941 100.75827508 229.22128451 106.74902344 222.75097656 C108.29156403 221.08449047 109.83352431 219.41747115 111.375 217.75 C111.87966797 217.20408203 112.38433594 216.65816406 112.90429688 216.09570312 C115.79612923 212.9619397 118.6597023 209.80570791 121.5 206.625 C126.14247579 201.43934605 130.91350516 196.37678676 135.6965332 191.32104492 C139.97269278 186.78651397 144.10131226 182.1432726 148.1875 177.4375 C153.63074354 171.307893 159.17446534 165.2730894 164.74267578 159.25732422 C168.50420785 155.18941219 172.21928817 151.08222635 175.91796875 146.95703125 C178.451049 144.14491979 181.003662 141.35114419 183.5625 138.5625 C184.02116455 138.06258545 184.4798291 137.5626709 184.95239258 137.04760742 C187.32820238 134.45954589 189.70640411 131.87370045 192.0859375 129.2890625 C192.56369629 128.76940918 193.04145508 128.24975586 193.53369141 127.71435547 C194.84984056 126.28284298 196.16706942 124.85232339 197.484375 123.421875 C199.5409715 121.17073559 201.54779094 118.88044092 203.546875 116.578125 C207.76400906 111.74250849 212.17029356 107.09483959 216.58203125 102.4375 C220.2966894 98.49980854 223.90637207 94.49384843 227.45507812 90.40625 C230.2927695 87.18145529 233.24127626 84.06286393 236.1875 80.9375 C239.83562636 77.05288562 243.47269309 73.17552427 246.9375 69.125 C255.19820055 59.61896771 263.3521402 50.88511633 276.1875 48.4375 C280.33942878 48.15585973 284.48034763 48.18471494 288.64038086 48.21044922 C289.88010651 48.21015717 291.11983215 48.20986511 292.39712524 48.20956421 C295.77893129 48.21071482 299.16049 48.22071174 302.5422523 48.23471212 C306.08297537 48.24725577 309.62370211 48.24839284 313.16444397 48.25076294 C319.86140178 48.25696706 326.55829391 48.27336336 333.25522286 48.29346192 C340.88280033 48.31585424 348.51038102 48.32682271 356.1379832 48.33685279 C371.82119344 48.35773059 387.50433823 48.3928857 403.1875 48.4375 C401.40996067 52.26645618 398.98677183 54.88029934 395.98828125 57.796875 C395.21837105 58.55898285 395.21837105 58.55898285 394.4329071 59.33648682 C392.79330301 60.95833649 391.14718847 62.5733566 389.5 64.1875 C387.87147962 65.78814721 386.24453964 67.39031974 384.62065125 68.9956665 C383.61279309 69.99154396 382.60228121 70.98474694 381.5884552 71.97454834 C378.86093305 74.6644513 376.2899239 77.43694558 373.78588867 80.33691406 C370.27796892 84.38730181 366.56206042 88.17472315 362.75 91.9375 C362.06623291 92.61748047 361.38246582 93.29746094 360.67797852 93.99804688 C357.79012227 96.86975143 354.89626925 99.73538438 352.00292969 102.6015625 C349.87484275 104.71142787 347.74987083 106.82439645 345.625 108.9375 C344.98312744 109.57107422 344.34125488 110.20464844 343.67993164 110.85742188 C339.91411442 114.60309578 336.37573208 118.47608847 332.90478516 122.49536133 C330.19990511 125.55440608 327.31345224 128.4159131 324.40625 131.28125 C323.78907104 131.89464233 323.17189209 132.50803467 322.53601074 133.14001465 C319.93491211 135.72499518 317.32779986 138.30387822 314.72119141 140.88330078 C306.46144215 148.93128856 306.46144215 148.93128856 298.6875 157.4375 C292.5348372 164.69468634 285.47821119 171.19675401 278.72119141 177.88330078 C269.6462916 186.83380164 269.6462916 186.83380164 261.11132812 196.29101562 C255.47922327 202.574958 249.29122175 208.37822289 243.29394531 214.31054688 C234.40092173 223.0963806 234.40092173 223.0963806 226.0390625 232.38085938 C223.54749788 235.14838843 220.88749785 237.73371048 218.21875 240.328125 C217.68894531 240.84532104 217.15914062 241.36251709 216.61328125 241.89538574 C214.40965776 244.04474832 212.20469689 246.1922107 209.98144531 248.32128906 C208.34082228 249.89564342 206.7163062 251.48518578 205.09375 253.078125 C204.58557739 253.55735413 204.07740479 254.03658325 203.55383301 254.53033447 C201.98669022 256.02758936 201.98669022 256.02758936 200.1875 258.4375 C200.19066523 261.84487531 202.01862924 263.713941 204.25 266.15625 C205.19746094 267.20039062 205.19746094 267.20039062 206.1640625 268.265625 C206.83179688 268.98234375 207.49953125 269.6990625 208.1875 270.4375 C208.83460938 271.13359375 209.48171875 271.8296875 210.1484375 272.546875 C212.15257346 274.68567622 214.16783119 276.81336556 216.1875 278.9375 C220.76556632 283.75236286 225.26659008 288.60342722 229.59570312 293.64453125 C231.77477942 296.09900001 234.11334614 298.37287566 236.45263672 300.67333984 C238.19609217 302.44623726 239.82416985 304.27906889 241.4453125 306.1640625 C245.05115364 310.31144721 248.78611102 314.320709 252.5625 318.3125 C258.18578261 324.28369992 263.73470422 330.30969661 269.1875 336.4375 C274.42906835 342.3180405 279.74254619 348.12352954 285.125 353.875 C291.99826888 361.2194946 298.86467806 368.57085522 305.4375 376.1875 C309.52075816 380.89296893 313.81212298 385.40466661 318.07324219 389.94824219 C320.99567217 393.06996414 323.89939954 396.19419947 326.6875 399.4375 C330.63007256 404.02049043 334.7954974 408.39653563 338.93139648 412.80419922 C342.2535592 416.34919261 345.53195042 419.92211859 348.75 423.5625 C350.2229824 425.19310782 351.70266389 426.81767879 353.1875 428.4375 C353.65446289 428.95054687 354.12142578 429.46359375 354.60253906 429.9921875 C368.30221137 444.88959759 380.79568483 451.2562668 401.1875 452.4375 C399.65837213 455.49575574 397.38397339 455.5995326 394.1953125 456.6796875 C393.58252441 456.88815308 392.96973633 457.09661865 392.33837891 457.31140137 C390.33298231 457.98857614 388.32346027 458.65204193 386.3125 459.3125 C385.28476471 459.65248016 385.28476471 459.65248016 384.23626709 459.99932861 C374.12710889 463.32977688 364.0790395 466.24381471 353.57373047 468.02978516 C350.96173766 468.47607409 348.35865684 468.96250692 345.75390625 469.44921875 C318.99783268 474.31006695 291.69152198 476.6065931 264.50073242 476.67773438 C262.22604941 476.68760392 259.95221391 476.71887938 257.67773438 476.75 C240.70714686 476.87363846 229.75354828 472.09809746 217.69750977 460.26220703 C212.25030598 454.80970727 206.97982185 449.2616163 201.93847656 443.43139648 C198.86398267 439.93036587 195.64470619 436.56654871 192.4375 433.1875 C186.85033329 427.27636504 181.30744569 421.33199954 175.82421875 415.32421875 C172.97649394 412.20648744 170.11535289 409.10151848 167.25 406 C166.75081055 405.45956055 166.25162109 404.91912109 165.73730469 404.36230469 C164.72613447 403.26768522 163.71490383 402.17312157 162.70361328 401.07861328 C159.70072804 397.82814716 156.69935017 394.57628806 153.69873047 391.32373047 C151.13955983 388.55010887 148.57783628 385.77891558 146.01171875 383.01171875 C145.48642578 382.44453125 144.96113281 381.87734375 144.41992188 381.29296875 C143.43383277 380.22834157 142.44693567 379.16446183 141.45898438 378.1015625 C138.85285928 375.28591818 136.30143461 372.43151581 133.78515625 369.53515625 C130.26357691 365.49421248 126.61955817 361.58199391 122.9375 357.6875 C116.62953621 350.98927973 110.3837448 344.23919907 104.1875 337.4375 C100.42395854 339.10109441 97.29209054 341.49189856 94.0625 344 C93.48991455 344.44255127 92.9173291 344.88510254 92.32739258 345.34106445 C87.86164901 348.83045133 83.61599764 352.51598122 79.453125 356.36328125 C77.39234629 358.24995969 75.2755845 360.03022426 73.125 361.8125 C68.1612879 366.13573312 64.24019184 371.27751531 60.1875 376.4375 C59.61386719 377.12199219 59.04023437 377.80648438 58.44921875 378.51171875 C41.63506348 398.93750642 28.94084735 425.7104123 25.58203125 451.953125 C25.1875 454.4375 25.1875 454.4375 24.1875 455.4375 C23.95674918 456.78497084 23.77596937 458.14127565 23.625 459.5 C23.480625 460.799375 23.33625 462.09875 23.1875 463.4375 C16.79263556 462.49217221 10.4178472 461.49489179 4.06054688 460.32495117 C-16.66122258 456.5432759 -36.40097471 456.06725074 -57.8125 455.4375 C-57.8125 335.6475 -57.8125 215.8575 -57.8125 92.4375 C-61.1125 91.4475 -64.4125 90.4575 -67.8125 89.4375 C-70.70265685 88.40097778 -73.57292797 87.35071316 -76.4375 86.25 C-77.15550781 85.97736328 -77.87351562 85.70472656 -78.61328125 85.42382812 C-80.34753294 84.76481248 -82.080197 84.10162113 -83.8125 83.4375 C-84.06804205 75.7363129 -84.26314766 68.03556771 -84.38243389 60.33109951 C-84.43971019 56.75265118 -84.51728061 53.17711399 -84.64233398 49.6003418 C-84.76240756 46.14412792 -84.82772665 42.69070032 -84.85614967 39.23256111 C-84.88619269 37.28027841 -84.97199283 35.3291097 -85.0587616 33.37852478 C-85.06127171 29.7509613 -84.94099092 26.88813233 -83.8125 23.4375 C-80.5333875 20.18832709 -76.9893712 18.32922999 -72.8125 16.4375 C-71.89421921 15.97109604 -70.97593842 15.50469208 -70.02983093 15.02415466 C-48.97024345 4.41345142 -23.40051333 -0.20734299 0 0 Z " fill="#19A333" transform="translate(486.8125,347.5625)"/>
<path d="M0 0 C0.74940857 0.00337372 1.49881714 0.00674744 2.27093506 0.01022339 C29.770705 0.18753131 71.38355091 2.63355091 92.1875 23.4375 C92.42800903 25.95584106 92.42800903 25.95584106 92.41455078 29.17236328 C92.41432419 30.97400436 92.41432419 30.97400436 92.41409302 32.81204224 C92.40377045 34.11414642 92.39344788 35.41625061 92.3828125 36.7578125 C92.37908276 38.10016673 92.37623561 39.44252367 92.37423706 40.78488159 C92.36659744 44.319514 92.3469463 47.85398228 92.3248291 51.3885498 C92.30437765 54.9946877 92.29523685 58.60085209 92.28515625 62.20703125 C92.2637006 69.28392135 92.22956079 76.36069997 92.1875 83.4375 C88.06435942 84.94264646 83.93869298 86.44074372 79.8125 87.9375 C78.0490625 88.58138672 78.0490625 88.58138672 76.25 89.23828125 C75.12851562 89.64433594 74.00703125 90.05039062 72.8515625 90.46875 C71.81467285 90.84580078 70.7777832 91.22285156 69.70947266 91.61132812 C67.1875 92.4375 67.1875 92.4375 65.1875 92.4375 C65.1912972 93.02118292 65.19509441 93.60486584 65.19900668 94.20623612 C65.42296327 128.82781119 65.59445363 163.44924122 65.69815329 198.07138719 C65.71065982 202.23183747 65.7236031 206.39228628 65.73681641 210.55273438 C65.73943951 211.38097756 65.74206261 212.20922074 65.74476521 213.0625622 C65.78823585 226.45979338 65.86705742 239.85659388 65.95902796 253.25356987 C66.05266312 267.00811188 66.10811289 280.76242889 66.12838495 294.51727653 C66.14208196 302.99972679 66.18528147 311.48095962 66.26666467 319.96303496 C66.31967358 325.78571925 66.33546811 331.60777757 66.32251377 337.43068543 C66.3161295 340.78731863 66.33117765 344.14012767 66.37955475 347.49666977 C66.69870404 370.78735413 66.69870404 370.78735413 60.32626343 377.81536865 C58.63694598 379.3819235 56.92609928 380.9258254 55.1875 382.4375 C52.94167324 385.45522924 50.96693164 388.60751192 49 391.8125 C48.495896 392.62412598 47.99179199 393.43575195 47.47241211 394.27197266 C36.650176 411.92353887 28.22527739 431.3012206 25.58203125 451.953125 C25.1875 454.4375 25.1875 454.4375 24.1875 455.4375 C23.95674918 456.78497084 23.77596937 458.14127565 23.625 459.5 C23.480625 460.799375 23.33625 462.09875 23.1875 463.4375 C16.79263556 462.49217221 10.4178472 461.49489179 4.06054688 460.32495117 C-16.66122258 456.5432759 -36.40097471 456.06725074 -57.8125 455.4375 C-57.8125 335.6475 -57.8125 215.8575 -57.8125 92.4375 C-61.1125 91.4475 -64.4125 90.4575 -67.8125 89.4375 C-70.70265685 88.40097778 -73.57292797 87.35071316 -76.4375 86.25 C-77.15550781 85.97736328 -77.87351562 85.70472656 -78.61328125 85.42382812 C-80.34753294 84.76481248 -82.080197 84.10162113 -83.8125 83.4375 C-84.06804205 75.7363129 -84.26314766 68.03556771 -84.38243389 60.33109951 C-84.43971019 56.75265118 -84.51728061 53.17711399 -84.64233398 49.6003418 C-84.76240756 46.14412792 -84.82772665 42.69070032 -84.85614967 39.23256111 C-84.88619269 37.28027841 -84.97199283 35.3291097 -85.0587616 33.37852478 C-85.06127171 29.7509613 -84.94099092 26.88813233 -83.8125 23.4375 C-80.5333875 20.18832709 -76.9893712 18.32922999 -72.8125 16.4375 C-71.89421921 15.97109604 -70.97593842 15.50469208 -70.02983093 15.02415466 C-48.97024345 4.41345142 -23.40051333 -0.20734299 0 0 Z " fill="#0D2C42" transform="translate(486.8125,347.5625)"/>
<path d="M0 0 C0.64213943 0.27527527 1.28427887 0.55055054 1.94587708 0.83416748 C3.97551941 1.70632401 5.99770964 2.59425875 8.01953125 3.484375 C10.67705447 4.64156352 13.33763395 5.79150084 16 6.9375 C16.975634 7.35903099 16.975634 7.35903099 17.97097778 7.78907776 C23.53746008 10.1679752 29.18236612 12.21493802 34.91040039 14.17651367 C38.06662782 15.31931751 40.96592991 16.70571963 43.92578125 18.2734375 C46.91236622 19.77897009 50.01941767 20.95217138 53.1328125 22.16796875 C56.03132674 23.31311258 58.89929833 24.5201885 61.76953125 25.734375 C65.67321637 27.37302074 69.58963178 28.8887673 73.58203125 30.296875 C77.5016378 31.69312969 81.13543642 33.31736207 84.8203125 35.23828125 C87.85937932 36.74306191 91.00341214 37.94568753 94.16015625 39.1796875 C96.90233783 40.2621276 99.61656198 41.39917666 102.33203125 42.546875 C107.48391435 44.70734211 112.6804493 46.7307433 117.89453125 48.734375 C123.80946926 51.00920981 129.59574168 53.43401018 135.3359375 56.125 C137.92508272 57.27573121 140.53324656 58.23585855 143.20703125 59.171875 C148.37198935 60.99565964 153.25788819 63.24727827 158.2109375 65.578125 C162.40243566 67.49527194 166.63472072 69.2879415 170.89453125 71.046875 C171.98435303 71.49994019 171.98435303 71.49994019 173.09619141 71.9621582 C176.31481989 73.28181851 179.44514937 74.44797622 182.83203125 75.234375 C182.83203125 75.894375 182.83203125 76.554375 182.83203125 77.234375 C182.24301025 77.45577148 181.65398926 77.67716797 181.04711914 77.90527344 C178.32854836 78.92889829 175.61154051 79.95661294 172.89453125 80.984375 C171.96833984 81.33242188 171.04214844 81.68046875 170.08789062 82.0390625 C165.90114464 83.62561887 161.76296798 85.23542721 157.703125 87.125 C153.66114618 88.95702069 149.52039045 90.4238217 145.328125 91.8671875 C133.6982197 95.88718952 122.31464912 100.53482212 110.89453125 105.109375 C106.57445004 106.83980911 102.25264957 108.56583994 97.9296875 110.2890625 C96.45025414 110.88423172 96.45025414 110.88423172 94.94093323 111.49142456 C93.58197182 112.03296677 93.58197182 112.03296677 92.19555664 112.58544922 C91.00005943 113.06460281 91.00005943 113.06460281 89.78041077 113.55343628 C87.83203125 114.234375 87.83203125 114.234375 85.83203125 114.234375 C85.85934326 113.67041016 85.88665527 113.10644531 85.91479492 112.52539062 C86.61071429 101.40017406 86.61071429 101.40017406 82.80859375 91.37109375 C79.91949741 89.25722414 77.07904186 87.74012308 73.83203125 86.234375 C72.73761719 85.62851562 71.64320313 85.02265625 70.515625 84.3984375 C59.21227779 78.30311716 47.19682842 74.74381186 34.83203125 71.546875 C34.0622998 71.34433105 33.29256836 71.14178711 32.49951172 70.93310547 C17.59567042 67.22800372 2.78545222 66.82590866 -12.48046875 66.859375 C-13.49820374 66.8605835 -14.51593872 66.86179199 -15.56451416 66.86303711 C-45.84560594 66.9605665 -75.77256768 71.21796028 -102.16796875 87.234375 C-102.88597656 87.62866699 -103.60398437 88.02295898 -104.34375 88.42919922 C-107.60445852 90.45700662 -109.77408617 91.90687424 -110.89453125 95.68310547 C-111.17871757 98.52141633 -111.22592482 101.25793651 -111.16796875 104.109375 C-111.17957031 105.08390625 -111.19117188 106.0584375 -111.203125 107.0625 C-111.22658359 109.45527638 -111.21386388 111.84209124 -111.16796875 114.234375 C-118.12586922 112.25533425 -124.86727478 109.92311986 -131.60546875 107.296875 C-138.76440057 104.52619221 -145.94472375 101.83335662 -153.16796875 99.234375 C-153.29471187 105.85444709 -153.38229556 112.47420657 -153.44262695 119.09521484 C-153.46777618 121.34761243 -153.50189993 123.59992836 -153.54516602 125.85205078 C-153.60579775 129.089072 -153.63417467 132.32501472 -153.65625 135.5625 C-153.69495964 137.07363373 -153.69495964 137.07363373 -153.73445129 138.61529541 C-153.86863706 144.29602374 -153.86863706 144.29602374 -150.69995117 148.77636719 C-149.44661987 149.49808105 -149.44661987 149.49808105 -148.16796875 150.234375 C-147.01157984 152.54715281 -146.96927947 154.03528721 -146.91796875 156.609375 C-146.8921875 157.38023437 -146.86640625 158.15109375 -146.83984375 158.9453125 C-147.16796875 161.234375 -147.16796875 161.234375 -148.703125 163.08422852 C-150.50784548 165.73325739 -150.3872256 166.80219294 -149.93359375 169.92578125 C-149.75473633 171.25053467 -149.75473633 171.25053467 -149.57226562 172.60205078 C-149.43884766 173.47071777 -149.30542969 174.33938477 -149.16796875 175.234375 C-149.07064453 175.9651123 -148.97332031 176.69584961 -148.87304688 177.44873047 C-148.57402869 179.6929135 -148.24796638 181.93204496 -147.91796875 184.171875 C-147.79373535 185.03377441 -147.66950195 185.89567383 -147.54150391 186.78369141 C-146.88777294 191.316484 -146.22569353 195.84800787 -145.55566406 200.37841797 C-144.99251433 204.18633396 -144.43523006 207.99507964 -143.88049316 211.80422974 C-143.65896872 213.31714557 -143.43532417 214.8297528 -143.20935059 216.3420105 C-142.8853933 218.51109352 -142.56903936 220.68118202 -142.25390625 222.8515625 C-142.06876465 224.10565918 -141.88362305 225.35975586 -141.69287109 226.65185547 C-140.94778968 233.15658948 -140.6034865 239.70160872 -140.16796875 246.234375 C-152.04796875 246.234375 -163.92796875 246.234375 -176.16796875 246.234375 C-176.16796875 238.67510139 -175.90476555 232.45974887 -174.48046875 225.234375 C-172.55669204 214.85074388 -170.97036268 204.43707706 -169.48046875 193.984375 C-169.31812241 192.85878174 -169.31812241 192.85878174 -169.15249634 191.71044922 C-165.6613579 175.88764906 -165.6613579 175.88764906 -169.16796875 161.234375 C-169.72241318 157.81053774 -169.78413129 154.65127636 -169.16796875 151.234375 C-166.79296875 148.109375 -166.79296875 148.109375 -164.16796875 146.234375 C-163.50796875 146.234375 -162.84796875 146.234375 -162.16796875 146.234375 C-162.49796875 129.404375 -162.82796875 112.574375 -163.16796875 95.234375 C-176.43582181 90.05860389 -176.43582181 90.05860389 -189.70385742 84.88330078 C-191.37289071 84.23211325 -193.04191781 83.58090989 -194.7109375 82.9296875 C-196.00046326 82.42683228 -196.00046326 82.42683228 -197.31604004 81.91381836 C-201.2730834 80.36963436 -205.22795235 78.82166898 -209.16796875 77.234375 C-207.59683339 74.09210429 -204.91655249 73.68319451 -201.73046875 72.359375 C-201.09302734 72.09253906 -200.45558594 71.82570313 -199.79882812 71.55078125 C-195.48267665 69.75129816 -191.14246543 68.01378158 -186.79296875 66.296875 C-183.56371284 64.98979523 -180.36716794 63.61334017 -177.16796875 62.234375 C-169.68608436 59.01636021 -162.18312171 55.97006502 -154.53271484 53.17504883 C-147.04369596 50.42658068 -139.84462987 47.33186115 -132.66796875 43.84765625 C-129.5944767 42.43096851 -126.50174763 41.23086555 -123.33166504 40.05366516 C-119.84328185 38.73277829 -116.40605554 37.29391227 -112.96484375 35.85546875 C-111.34985805 35.18350147 -109.73486759 34.51154563 -108.11987305 33.83959961 C-107.27355316 33.48686981 -106.42723328 33.13414001 -105.55526733 32.77072144 C-89.34440676 26.01636815 -73.10964427 19.32126235 -56.85546875 12.671875 C-55.96041626 12.30536835 -55.06536377 11.93886169 -54.14318848 11.56124878 C-53.26868042 11.20322174 -52.39417236 10.8451947 -51.49316406 10.47631836 C-50.63077118 10.12324112 -49.7683783 9.77016388 -48.87985229 9.40638733 C-47.17753338 8.71167506 -45.47403708 8.01984015 -43.76931763 7.33103943 C-39.40627257 5.56795907 -35.06647999 3.76613218 -30.74853516 1.89501953 C-29.41312431 1.32920921 -29.41312431 1.32920921 -28.05073547 0.75196838 C-26.36587731 0.03795906 -24.68730911 -0.69117219 -23.01701355 -1.43861389 C-14.62638021 -4.94778102 -8.22796625 -3.59250034 0 0 Z " fill="#0F2D44" transform="translate(504.16796875,269.765625)"/>
<path d="M0 0 C0.67546371 -0.00091141 1.35092743 -0.00182281 2.04685974 -0.00276184 C22.58812821 -0.02757216 42.24145181 0.70994925 62.3125 5.4375 C63.99260814 5.79067777 65.67354374 6.1399535 67.35546875 6.484375 C113.16270813 16.1873378 156.46224449 41.82381892 182.3125 81.4375 C184.76276514 85.37056661 187.06977439 89.38277092 189.3125 93.4375 C189.62888428 92.94983154 189.94526855 92.46216309 190.27124023 91.9597168 C196.50298601 82.38949553 202.67648814 72.96142022 210.3125 64.4375 C211.04339844 63.6125 211.77429688 62.7875 212.52734375 61.9375 C238.47454366 34.30653837 279.76965153 21.43986322 315.5168457 13.10473633 C318.30145574 12.44013592 321.06650722 11.71714285 323.8359375 10.9921875 C331.40339427 9.09221554 339.06513183 7.72114306 346.73901367 6.33032227 C349.242849 5.87629671 351.74550415 5.4161696 354.24804688 4.95507812 C358.22687569 4.22479985 362.20832109 3.51093616 366.19256592 2.81082153 C368.09819266 2.47523964 370.00255249 2.13248238 371.90673828 1.78881836 C379.73516466 0.46074997 387.37777404 0.0875013 395.3125 0.125 C396.58577148 0.13063965 397.85904297 0.1362793 399.17089844 0.14208984 C409.05123401 0.26780336 418.53058374 1.11772054 428.24365234 2.88085938 C431.20485948 3.41797571 434.16984298 3.92957659 437.13633728 4.43655396 C452.21565478 7.02149224 467.32681765 9.61553436 482.05957031 13.79882812 C483.62561539 14.24277849 485.19565636 14.67277426 486.76855469 15.09179688 C503.27071398 19.53097423 503.27071398 19.53097423 507.89453125 26.96875 C508.36246094 27.7834375 508.83039062 28.598125 509.3125 29.4375 C510.56715805 31.1784388 511.8390568 32.90704051 513.125 34.625 C514.52201588 36.56164751 515.91773852 38.49922826 517.3125 40.4375 C518.21073493 41.67332434 519.10918239 42.90899423 520.0078125 44.14453125 C520.92213707 45.40866466 521.83620275 46.67298536 522.75 47.9375 C523.18739502 48.53715576 523.62479004 49.13681152 524.07543945 49.75463867 C525.91293779 52.30880137 527.31071841 54.43215522 528.3125 57.4375 C520.99155054 56.70268351 513.92046973 55.12064275 506.75 53.5 C505.55697266 53.23509766 504.36394531 52.97019531 503.13476562 52.69726562 C493.49945643 50.53882782 493.49945643 50.53882782 489.3125 49.3046875 C486.49169395 48.48929825 483.77481581 47.94191678 480.875 47.5 C476.3891468 46.79257327 471.95075394 45.96336376 467.5 45.0625 C437.12352256 39.2096288 406.31229129 37.26836874 375.4375 37.25 C374.43362244 37.24891235 373.42974487 37.24782471 372.39544678 37.2467041 C369.51615884 37.24705818 366.6370671 37.25619696 363.7578125 37.26953125 C362.8933551 37.27074478 362.02889771 37.27195831 361.13824463 37.27320862 C356.74488087 37.30721729 352.64332592 37.61208227 348.3125 38.4375 C345.85512825 38.56231008 343.39653957 38.6641054 340.9375 38.75 C294.20213744 41.09401232 247.32844357 57.40132294 211.3125 87.4375 C210.15495512 88.38933168 208.997403 89.34115454 207.83984375 90.29296875 C201.69761333 95.3838657 195.80807323 100.64307384 190.3125 106.4375 C186.17676046 102.94509773 182.15497868 99.37034258 178.1875 95.6875 C167.68963114 86.1335812 156.22870084 78.10833716 144.3125 70.4375 C143.42820312 69.86 142.54390625 69.2825 141.6328125 68.6875 C134.88406536 64.43910836 127.68875647 61.42879295 120.3125 58.4375 C119.39984375 58.06625 118.4871875 57.695 117.546875 57.3125 C115.96904584 56.67739895 114.38858119 56.0487768 112.8046875 55.42895508 C111.25777047 54.81355245 109.71739772 54.1810588 108.18847656 53.5222168 C100.76709808 50.37485849 93.11391271 48.34743354 85.3125 46.375 C84.62486572 46.19974792 83.93723145 46.02449585 83.22875977 45.84393311 C55.72683068 38.85823867 28.51965116 37.02059301 0.1875 37.0625 C-1.076315 37.06237915 -2.34013 37.0622583 -3.64224243 37.06213379 C-32.08053153 37.10067929 -59.51550267 39.68338925 -87.45458984 45.0234375 C-91.51121029 45.77568201 -95.59221644 46.36109447 -99.67578125 46.9453125 C-104.03730821 47.65809122 -108.35826074 48.55156588 -112.6875 49.4375 C-113.63117432 49.62957031 -114.57484863 49.82164062 -115.54711914 50.01953125 C-132.19588567 53.38645013 -132.19588567 53.38645013 -148.6875 57.4375 C-147.04901521 52.26603238 -143.87799722 48.30286838 -140.6875 44 C-135.68258498 37.26364411 -135.68258498 37.26364411 -131.02734375 30.28515625 C-130.61806641 29.65343506 -130.20878906 29.02171387 -129.78710938 28.37084961 C-128.70038094 26.67979971 -127.64391281 24.96941025 -126.58984375 23.2578125 C-122.89455637 18.82215208 -117.03550313 17.89263135 -111.6875 16.4375 C-110.63715576 16.13585937 -109.58681152 15.83421875 -108.50463867 15.5234375 C-105.28140948 14.61006979 -102.05016202 13.73573257 -98.8125 12.875 C-97.66410645 12.56908936 -96.51571289 12.26317871 -95.33251953 11.94799805 C-83.60736504 8.85161912 -71.89111049 6.42218451 -59.9375 4.375 C-58.9976123 4.21233643 -58.05772461 4.04967285 -57.08935547 3.88208008 C-53.96007097 3.3619444 -50.82717689 2.89080059 -47.6875 2.4375 C-46.45604248 2.25582275 -45.22458496 2.07414551 -43.95581055 1.88696289 C-29.36775723 -0.08736671 -14.6960974 -0.00121966 0 0 Z " fill="#0F2D44" transform="translate(443.6875,874.5625)"/>
<path d="M0 0 C0 3.31242917 -0.33834699 3.83230615 -2.23828125 6.37109375 C-2.72304932 7.02198975 -3.20781738 7.67288574 -3.70727539 8.34350586 C-4.23699951 9.03452393 -4.76672363 9.72554199 -5.3125 10.4375 C-6.12738892 11.50786499 -6.12738892 11.50786499 -6.95874023 12.59985352 C-37.60727951 52.35086214 -83.6051582 66.73647186 -130.92071533 76.56567383 C-189.06907207 88.71184774 -243.4064922 104.46922675 -286 148 C-287.66545762 149.66787483 -289.3319227 151.33474516 -291 153 C-291.65484375 152.21238281 -292.3096875 151.42476562 -292.984375 150.61328125 C-302.90790436 138.73890969 -312.71995164 127.51476339 -325 118 C-325.79792969 117.33613281 -326.59585937 116.67226563 -327.41796875 115.98828125 C-333.6736274 110.79394153 -340.31382618 106.34018484 -347.22949219 102.08935547 C-348.88172855 101.07276989 -350.52334335 100.03897722 -352.1640625 99.00390625 C-374.44251577 85.53384387 -400.39307727 77.16573851 -425.75 71.875 C-426.48621582 71.71636475 -427.22243164 71.55772949 -427.98095703 71.39428711 C-445.70856552 67.83792627 -463.61242233 67.59177271 -481.625 67.625 C-482.8388739 67.6262085 -484.0527478 67.62741699 -485.30340576 67.62866211 C-517.90508031 67.7165358 -548.34185353 72.58066875 -580 80 C-580.79583496 80.18626953 -581.59166992 80.37253906 -582.41162109 80.56445312 C-587.2757626 81.70395818 -592.13841964 82.84961975 -597 84 C-567.22371203 48.37202413 -567.22371203 48.37202413 -546.78125 44.5390625 C-543.70394638 43.94261882 -540.6918728 43.18704721 -537.65625 42.40625 C-531.13822858 40.75688584 -524.58758156 39.34103204 -518 38 C-517.15131348 37.81920898 -516.30262695 37.63841797 -515.42822266 37.45214844 C-502.74069631 34.83073716 -490.02872061 34.7198095 -477.125 34.6875 C-476.29110748 34.68373352 -475.45721497 34.67996704 -474.59805298 34.67608643 C-463.87877773 34.65154844 -453.59894255 35.27698328 -443 37 C-442.17532227 37.12560303 -441.35064453 37.25120605 -440.50097656 37.38061523 C-407.4626853 42.52336812 -375.86350564 53.78205798 -349 74 C-347.64068359 75.01320313 -347.64068359 75.01320313 -346.25390625 76.046875 C-321.81822601 94.96986578 -302.93547734 119.4491773 -291 148 C-290.5875 147.06800781 -290.175 146.13601563 -289.75 145.17578125 C-284.20068068 132.84287499 -277.75195696 121.39411519 -269 111 C-267.98486328 109.78376953 -267.98486328 109.78376953 -266.94921875 108.54296875 C-255.32256657 95.09900682 -240.57584147 85.31813641 -225 77 C-224.40461426 76.67918457 -223.80922852 76.35836914 -223.19580078 76.02783203 C-213.69162859 70.99861541 -203.7263124 67.32836832 -193.5625 63.875 C-192.41652344 63.47941895 -191.27054688 63.08383789 -190.08984375 62.67626953 C-170.26162347 56.12896096 -149.61285734 52.42368759 -129.10153198 48.73220825 C-84.70064853 40.68795178 -42.10129465 29.41976104 -4.67553711 3.16992188 C-3.13169768 2.09195618 -1.56669795 1.0444653 0 0 Z " fill="#3CA926" transform="translate(924,791)"/>
<path d="M0 0 C0 3.31242917 -0.33834699 3.83230615 -2.23828125 6.37109375 C-2.72304932 7.02198975 -3.20781738 7.67288574 -3.70727539 8.34350586 C-4.23699951 9.03452393 -4.76672363 9.72554199 -5.3125 10.4375 C-6.12738892 11.50786499 -6.12738892 11.50786499 -6.95874023 12.59985352 C-37.60727951 52.35086214 -83.6051582 66.73647186 -130.92071533 76.56567383 C-189.03352812 88.70442323 -243.46118426 104.44296793 -286 148 C-286.97791853 148.98041322 -287.95697244 149.95969612 -288.9375 150.9375 C-289.618125 151.618125 -290.29875 152.29875 -291 153 C-291.99 151.68 -292.98 150.36 -294 149 C-293.505 148.01 -293.505 148.01 -293 147 C-292.01 147 -291.02 147 -290 147 C-289.57589844 145.97261719 -289.15179687 144.94523438 -288.71484375 143.88671875 C-275.96580216 113.54532166 -253.81212211 92.38685165 -225 77 C-224.10692139 76.51877686 -224.10692139 76.51877686 -223.19580078 76.02783203 C-213.69162859 70.99861541 -203.7263124 67.32836832 -193.5625 63.875 C-192.41652344 63.47941895 -191.27054688 63.08383789 -190.08984375 62.67626953 C-170.26162347 56.12896096 -149.61285734 52.42368759 -129.10153198 48.73220825 C-84.70064853 40.68795178 -42.10129465 29.41976104 -4.67553711 3.16992188 C-3.13169768 2.09195618 -1.56669795 1.0444653 0 0 Z " fill="#078E36" transform="translate(924,791)"/>
<path d="M0 0 C2.90543872 1.31376917 4.96661059 2.72056492 7.20800781 4.98095703 C7.80832825 5.58142853 8.40864868 6.18190002 9.02716064 6.80056763 C9.66272888 7.44645844 10.29829712 8.09234924 10.953125 8.7578125 C11.61334656 9.42086395 12.27356812 10.08391541 12.95379639 10.76705933 C15.05727824 12.88171832 17.15369142 15.00323212 19.25 17.125 C20.67662261 18.56165557 22.10370072 19.99785898 23.53125 21.43359375 C27.02613661 24.95050804 30.51470062 28.47358547 34 32 C30.85529686 32.87216306 29.16098123 33.00865338 26.03515625 31.99609375 C25.24931152 31.7527832 24.4634668 31.50947266 23.65380859 31.25878906 C22.79867676 30.98776367 21.94354492 30.71673828 21.0625 30.4375 C4.03825122 25.29523361 -13.50646508 22.10778503 -31 19 C-27.98216233 15.74632221 -24.46016064 14.12552693 -20.5 12.25 C-9.54188856 7.18410509 -9.54188856 7.18410509 0 0 Z " fill="#40AB2A" transform="translate(906,842)"/>
<path d="M0 0 C1.23972565 -0.00029205 2.47945129 -0.00058411 3.75674438 -0.00088501 C7.13855043 0.0002656 10.52010914 0.01026252 13.90187144 0.02426291 C17.44259451 0.03680655 20.98332125 0.03794362 24.52406311 0.04031372 C31.22102092 0.04651785 37.91791305 0.06291414 44.614842 0.0830127 C52.24241947 0.10540502 59.87000016 0.1163735 67.49760234 0.12640357 C83.18081258 0.14728137 98.86395737 0.18243648 114.54711914 0.22705078 C112.76511227 4.07733069 110.47036509 6.50696498 107.42211914 9.47705078 C106.51204102 10.36908203 105.60196289 11.26111328 104.66430664 12.18017578 C103.61629883 13.19337891 103.61629883 13.19337891 102.54711914 14.22705078 C101.88711914 13.89705078 101.22711914 13.56705078 100.54711914 13.22705078 C101.49829048 12.05453768 102.45828923 10.88918063 103.42211914 9.72705078 C103.95579102 9.07736328 104.48946289 8.42767578 105.03930664 7.75830078 C105.53688477 7.25298828 106.03446289 6.74767578 106.54711914 6.22705078 C107.20711914 6.22705078 107.86711914 6.22705078 108.54711914 6.22705078 C108.21711914 5.23705078 107.88711914 4.24705078 107.54711914 3.22705078 C91.74394371 3.15692876 75.94081038 3.104047 60.13751793 3.07161427 C52.79955211 3.05615403 45.46168302 3.03508073 38.1237793 3.00073242 C31.72707574 2.97080413 25.33044226 2.95146964 18.93367064 2.9447853 C15.54749286 2.94087881 12.16151553 2.93171588 8.77540207 2.90986061 C4.99264347 2.88810953 1.21030123 2.88508298 -2.57250977 2.88647461 C-4.25133743 2.87029587 -4.25133743 2.87029587 -5.96408081 2.85379028 C-11.578867 2.87616746 -15.59292262 3.08055335 -20.45288086 6.22705078 C-21.08452148 6.54544922 -21.71616211 6.86384766 -22.36694336 7.19189453 C-31.49808478 12.38288589 -38.79211939 21.10571562 -45.54663086 29.03564453 C-48.11856375 31.99231328 -50.78630625 34.85582543 -53.45288086 37.72705078 C-56.73812075 41.26535043 -59.99582448 44.81206666 -63.14038086 48.47705078 C-66.33347511 52.17513561 -69.78468211 55.57466521 -73.26147461 59.00439453 C-75.87595991 61.65616304 -78.29017633 64.44236485 -80.71069336 67.27001953 C-82.52530526 69.30840644 -84.4325494 71.20135449 -86.39038086 73.10205078 C-89.22751721 75.89045769 -91.71601821 78.7618607 -94.14038086 81.91455078 C-97.44960139 86.16181807 -101.04821997 89.91070274 -104.89038086 93.66455078 C-109.70948927 98.37352387 -114.02155666 103.25240422 -118.20678711 108.54345703 C-120.65959731 111.474032 -123.28374758 114.11787104 -126.01538086 116.78955078 C-130.23625673 120.92212381 -133.97832652 125.19675971 -137.60131836 129.85595703 C-139.45963787 132.23570375 -141.36695139 134.55623007 -143.32788086 136.85205078 C-143.88217773 137.50431641 -144.43647461 138.15658203 -145.00756836 138.82861328 C-146.45288086 140.22705078 -146.45288086 140.22705078 -148.45288086 140.22705078 C-148.70038086 140.82517578 -148.94788086 141.42330078 -149.20288086 142.03955078 C-150.61658098 144.51352599 -152.10343469 145.66075334 -154.45288086 147.22705078 C-155.11288086 146.89705078 -155.77288086 146.56705078 -156.45288086 146.22705078 C-155.8844043 145.67017578 -155.31592773 145.11330078 -154.73022461 144.53955078 C-150.39827776 140.25822768 -146.2174525 135.92205054 -142.24584961 131.30517578 C-136.29379607 124.40649935 -130.08617257 117.7327515 -123.89770508 111.046875 C-120.136173 106.97896297 -116.42109269 102.87177713 -112.72241211 98.74658203 C-110.18933186 95.93447057 -107.63671886 93.14069497 -105.07788086 90.35205078 C-104.61921631 89.85213623 -104.16055176 89.35222168 -103.68798828 88.8371582 C-101.31217847 86.24909667 -98.93397675 83.66325123 -96.55444336 81.07861328 C-96.07668457 80.55895996 -95.59892578 80.03930664 -95.10668945 79.50390625 C-93.7905403 78.07239376 -92.47331144 76.64187417 -91.15600586 75.21142578 C-89.09940936 72.96028637 -87.09258992 70.6699917 -85.09350586 68.36767578 C-80.8763718 63.53205927 -76.4700873 58.88439037 -72.05834961 54.22705078 C-68.34369146 50.28935933 -64.73400879 46.28339921 -61.18530273 42.19580078 C-58.34761136 38.97100608 -55.39910459 35.85241471 -52.45288086 32.72705078 C-48.8047545 28.8424364 -45.16768777 24.96507506 -41.70288086 20.91455078 C-29.14007723 6.45785716 -19.24690009 -0.11906279 0 0 Z " fill="#4CC62E" transform="translate(775.452880859375,395.77294921875)"/>
<path d="M0 0 C41.91 0 83.82 0 127 0 C124.99006295 4.01987409 123.06153611 6.14516995 119.875 9.25 C118.96492187 10.14203125 118.05484375 11.0340625 117.1171875 11.953125 C116.06917969 12.96632813 116.06917969 12.96632813 115 14 C114.01 13.505 114.01 13.505 113 13 C113.95117134 11.8274869 114.91117009 10.66212985 115.875 9.5 C116.40867187 8.8503125 116.94234375 8.200625 117.4921875 7.53125 C117.98976563 7.0259375 118.48734375 6.520625 119 6 C119.66 6 120.32 6 121 6 C120.505 4.515 120.505 4.515 120 3 C119.18307033 3.00138269 119.18307033 3.00138269 118.34963703 3.00279331 C105.04282978 3.02496412 91.73602581 3.04140356 78.42920399 3.05181217 C71.99389263 3.05701603 65.55859467 3.06406803 59.12329102 3.07543945 C52.90521298 3.08635744 46.68714778 3.09229563 40.4690609 3.09487724 C38.10458868 3.09671549 35.74011711 3.10030497 33.37565041 3.10573006 C9.58807657 3.1581055 9.58807657 3.1581055 -1 2 C-0.67 1.34 -0.34 0.68 0 0 Z " fill="#5AC533" transform="translate(763,396)"/>
<path d="M0 0 C0.66 0.33 1.32 0.66 2 1 C-1.77534706 5.47541142 -5.6849596 9.72066368 -9.875 13.8125 C-13.3086103 17.1995002 -16.43349126 20.66502391 -19.4375 24.4375 C-22.60353461 28.40902752 -25.93112092 32.01115131 -29.5625 35.5625 C-33.78337587 39.69507303 -37.52544566 43.96970893 -41.1484375 48.62890625 C-43.00675701 51.00865297 -44.91407053 53.32917929 -46.875 55.625 C-47.70644531 56.60339844 -47.70644531 56.60339844 -48.5546875 57.6015625 C-50 59 -50 59 -52 59 C-52.2475 59.598125 -52.495 60.19625 -52.75 60.8125 C-54.16370012 63.28647521 -55.65055383 64.43370255 -58 66 C-58.66 65.67 -59.32 65.34 -60 65 C-59.43152344 64.443125 -58.86304688 63.88625 -58.27734375 63.3125 C-53.9453969 59.0311769 -49.76457164 54.69499976 -45.79296875 50.078125 C-39.84091521 43.17944857 -33.63329171 36.50570072 -27.44482422 29.81982422 C-23.69394 25.76342731 -19.98925084 21.66797168 -16.30078125 17.5546875 C-13.58958479 14.54429279 -10.86061301 11.55070053 -8.125 8.5625 C-7.6602124 8.05388428 -7.1954248 7.54526855 -6.71655273 7.02124023 C-4.5248377 4.63053369 -2.32039632 2.2666123 0 0 Z " fill="#38BA30" transform="translate(679,477)"/>
<path d="M0 0 C18.15 0 36.3 0 55 0 C55 0.33 55 0.66 55 1 C44.31443746 2.60265185 33.86301048 3.32067437 23.05908203 3.26074219 C20.7097102 3.24981257 18.3610707 3.26082483 16.01171875 3.2734375 C14.5026025 3.27211901 12.99348669 3.26956307 11.484375 3.265625 C10.44225861 3.27169769 10.44225861 3.27169769 9.37908936 3.27789307 C5.75260984 3.24265392 3.08611005 2.98069651 0 1 C0 0.67 0 0.34 0 0 Z " fill="#339755" transform="translate(728,821)"/>
<path d="M0 0 C0.99 0.33 1.98 0.66 3 1 C2.07058594 1.9178125 1.14117188 2.835625 0.18359375 3.78125 C-8.3651944 12.24007009 -8.3651944 12.24007009 -16.40234375 21.1796875 C-19.42434712 24.62285026 -22.72395671 27.80053954 -26 31 C-26.33 30.01 -26.66 29.02 -27 28 C-25.71034824 26.62437146 -24.37310707 25.29233607 -23 24 C-22.34 24 -21.68 24 -21 24 C-20.835 23.319375 -20.67 22.63875 -20.5 21.9375 C-18.27815221 17.58638141 -14.70526257 15.09608013 -11 12 C-7.04375365 8.23214634 -3.50632412 4.18108065 0 0 Z " fill="#3ABA3A" transform="translate(764,523)"/>
<path d="M0 0 C1.32 0.99 2.64 1.98 4 3 C4.99 2.34 5.98 1.68 7 1 C8.03041513 2.95330868 9.0490893 4.91281528 10.0625 6.875 C10.63097656 7.96554687 11.19945312 9.05609375 11.78515625 10.1796875 C12.38650391 11.57574219 12.38650391 11.57574219 13 13 C12.67 13.66 12.34 14.32 12 15 C8.66863403 13.57646476 6.72335243 11.8664687 4.375 9.125 C3.78460937 8.44695313 3.19421875 7.76890625 2.5859375 7.0703125 C1.08681913 5.11333531 0.01430932 3.23951463 -1 1 C-0.67 0.67 -0.34 0.34 0 0 Z " fill="#3CA831" transform="translate(619,924)"/>
<path d="M0 0 C-3 2 -3 2 -7 3 C-7 12.24 -7 21.48 -7 31 C-7.99 31.495 -7.99 31.495 -9 32 C-9 21.11 -9 10.22 -9 -1 C-5.79937313 -2.60031344 -3.27728194 -1.03173691 0 0 Z " fill="#F2F3F4" transform="translate(360,371)"/>
<path d="M0 0 C0.99 0.33 1.98 0.66 3 1 C2.40050537 1.59425781 1.80101074 2.18851562 1.18334961 2.80078125 C-1.07574527 5.04266107 -3.33244873 7.28691531 -5.58764648 9.53271484 C-6.55742273 10.49751459 -7.5281007 11.46140895 -8.49975586 12.42431641 C-13.75742782 17.63589222 -18.90884815 22.85549832 -23.65795898 28.5390625 C-25 30 -25 30 -27 31 C-26.51908265 26.68310407 -23.99001717 24.66137892 -20.9765625 21.71875 C-20.47458344 21.22338745 -19.97260437 20.7280249 -19.45541382 20.21765137 C-17.85222915 18.63783111 -16.23923898 17.06851665 -14.625 15.5 C-13.01964913 13.92982038 -11.41649283 12.35748948 -9.81600952 10.78234863 C-8.36025006 9.35123249 -6.89829641 7.92642532 -5.43603516 6.50195312 C-3.40871118 4.41977071 -1.66309646 2.37486008 0 0 Z " fill="#3CBD22" transform="translate(807,479)"/>
<path d="M0 0 C0.66 0 1.32 0 2 0 C0.49017269 3.42856619 -1.51713969 5.95678216 -4 8.75 C-5.051875 9.94882812 -5.051875 9.94882812 -6.125 11.171875 C-8 13 -8 13 -10 13 C-10.2475 13.598125 -10.495 14.19625 -10.75 14.8125 C-12.16370012 17.28647521 -13.65055383 18.43370255 -16 20 C-16.66 19.67 -17.32 19.34 -18 19 C-17.43152344 18.443125 -16.86304688 17.88625 -16.27734375 17.3125 C-11.80504888 12.89246901 -7.49556157 8.40969971 -3.41015625 3.62890625 C-2.32370902 2.37392427 -1.17374345 1.17374345 0 0 Z " fill="#2BB531" transform="translate(637,523)"/>
<path d="M0 0 C0.66 0.33 1.32 0.66 2 1 C0.96552734 2.12535156 0.96552734 2.12535156 -0.08984375 3.2734375 C-6.09800753 9.81530234 -12.07259911 16.3847279 -18 23 C-18.99 22.67 -19.98 22.34 -21 22 C-20.25556641 21.27296875 -20.25556641 21.27296875 -19.49609375 20.53125 C-15.36992221 16.45988529 -11.45393195 12.29325188 -7.67578125 7.8984375 C-5.23731309 5.13597706 -2.63690415 2.57258941 0 0 Z " fill="#42C12C" transform="translate(700,454)"/>
<path d="M0 0 C9.57539773 -0.4633257 18.62133665 1.28364331 28 3 C28 3.66 28 4.32 28 5 C24.83316436 4.6891977 21.66656534 4.37604334 18.5 4.0625 C17.613125 3.97548828 16.72625 3.88847656 15.8125 3.79882812 C10.53006818 3.27446908 5.26435854 2.68264462 0 2 C0 1.34 0 0.68 0 0 Z " fill="#2A3E53" transform="translate(463,802)"/>
<path d="M0 0 C1 4 1 4 0 6 C0.99 6.33 1.98 6.66 3 7 C2.07456291 8.34173403 1.13422595 9.67320159 0.1875 11 C-0.33457031 11.7425 -0.85664062 12.485 -1.39453125 13.25 C-1.92433594 13.8275 -2.45414063 14.405 -3 15 C-3.99 15 -4.98 15 -6 15 C-6.66 13.35 -7.32 11.7 -8 10 C-6.68 10 -5.36 10 -4 10 C-2.68 6.7 -1.36 3.4 0 0 Z " fill="#1B893E" transform="translate(638,928)"/>
<path d="M0 0 C7.15801225 5.82628904 13.52591766 12.4382985 20 19 C19.34 19.33 18.68 19.66 18 20 C11.50066804 14.40380102 5.2803495 8.78902079 0 2 C0 1.34 0 0.68 0 0 Z " fill="#0F9B37" transform="translate(833,770)"/>
<path d="M0 0 C4.95 0 9.9 0 15 0 C13.49376879 3.01246242 11.14416513 3.36585787 8.078125 4.46875 C5.45108753 5.14032349 3.54991506 4.8765333 1 4 C0.67 2.68 0.34 1.36 0 0 Z " fill="#249B45" transform="translate(873,800)"/>
<path d="M0 0 C0 3.63320695 -0.73946263 4.25506176 -3 7 C-3.556875 7.763125 -4.11375 8.52625 -4.6875 9.3125 C-7.25063377 12.29127708 -10.04490488 14.73754025 -13.02734375 17.28515625 C-15.47797923 19.41551066 -17.7403837 21.66977069 -20 24 C-20.66 23.67 -21.32 23.34 -22 23 C-21.5467334 22.55197021 -21.0934668 22.10394043 -20.62646484 21.64233398 C-18.53991414 19.5767924 -16.45744503 17.50718048 -14.375 15.4375 C-13.66214844 14.73302734 -12.94929687 14.02855469 -12.21484375 13.30273438 C-7.92085719 9.028445 -3.87837406 4.65527233 0 0 Z " fill="#E6F6E8" transform="translate(722,569)"/>
<path d="M0 0 C0.33 0 0.66 0 1 0 C2.44796872 8.73952546 3.29211698 17.13911833 3 26 C-1.017951 21.982049 -0.04787055 15.12744843 -0.06591797 9.71923828 C-0.06092779 6.47918953 -0.03538685 3.23986234 0 0 Z " fill="#34475D" transform="translate(360,487)"/>
<path d="M0 0 C0.33 0.99 0.66 1.98 1 3 C-11.83803863 16.19910847 -11.83803863 16.19910847 -18 19 C-12.44964797 12.21623641 -6.23557973 6.14477032 0 0 Z " fill="#E3F6E3" transform="translate(741,550)"/>
<path d="M0 0 C0.66 0.33 1.32 0.66 2 1 C1.34 2.32 0.68 3.64 0 5 C-0.66 5 -1.32 5 -2 5 C-2 5.66 -2 6.32 -2 7 C-3.64453125 8.76171875 -3.64453125 8.76171875 -5.8125 10.6875 C-6.52019531 11.33074219 -7.22789062 11.97398437 -7.95703125 12.63671875 C-8.63121094 13.08660156 -9.30539062 13.53648437 -10 14 C-10.99 13.67 -11.98 13.34 -13 13 C-8.71 8.71 -4.42 4.42 0 0 Z " fill="#21384F" transform="translate(664,929)"/>
<path d="M0 0 C0.99 0.33 1.98 0.66 3 1 C-0.63 4.96 -4.26 8.92 -8 13 C-8.66 12.01 -9.32 11.02 -10 10 C-6.7 6.7 -3.4 3.4 0 0 Z " fill="#28B437" transform="translate(616,546)"/>
<path d="M0 0 C3.27655508 1.40526214 5.15432686 3.02917473 7.4375 5.75 C8.035625 6.45640625 8.63375 7.1628125 9.25 7.890625 C9.8275 8.58671875 10.405 9.2828125 11 10 C11.515625 10.61359375 12.03125 11.2271875 12.5625 11.859375 C13.71475603 13.23422594 14.85842244 14.61626963 16 16 C13 16 13 16 10.87890625 13.953125 C10.11449219 13.06109375 9.35007812 12.1690625 8.5625 11.25 C5.25147858 7.41724655 5.25147858 7.41724655 1.71484375 3.796875 C0 2 0 2 0 0 Z " fill="#1EA73E" transform="translate(753,683)"/>
<path d="M0 0 C1.32 0.33 2.64 0.66 4 1 C4 1.66 4 2.32 4 3 C6.475 3.99 6.475 3.99 9 5 C9 5.66 9 6.32 9 7 C9.66 7 10.32 7 11 7 C11.33 7.99 11.66 8.98 12 10 C9 10 9 10 7.3515625 8.43359375 C6.78179688 7.77488281 6.21203125 7.11617187 5.625 6.4375 C3.8610936 4.49665854 3.8610936 4.49665854 2 3 C-0.86920862 2.86789525 -0.86920862 2.86789525 -3 4 C-2.01 2.68 -1.02 1.36 0 0 Z " fill="#0C8D37" transform="translate(589,682)"/>
<path d="M0 0 C2.96052484 3.36423277 3.92289822 6.69159287 5 11 C3.1875 10.9375 3.1875 10.9375 1 10 C-0.875 6.625 -0.875 6.625 -2 3 C-1.34 2.01 -0.68 1.02 0 0 Z " fill="#38AF39" transform="translate(627,928)"/>
<path d="M0 0 C0.66 0 1.32 0 2 0 C2.33 1.65 2.66 3.3 3 5 C3.99 5.33 4.98 5.66 6 6 C2.7 6.66 -0.6 7.32 -4 8 C-2.87548273 5.0280615 -1.77706209 2.66559313 0 0 Z " fill="#1E3147" transform="translate(299,924)"/>
<path d="M0 0 C0 0.66 0 1.32 0 2 C-0.66 2 -1.32 2 -2 2 C-2 2.66 -2 3.32 -2 4 C-0.35 4.33 1.3 4.66 3 5 C3.33 5.99 3.66 6.98 4 8 C2.37276701 7.54965877 0.74826336 7.08944646 -0.875 6.625 C-1.77992188 6.36976563 -2.68484375 6.11453125 -3.6171875 5.8515625 C-6 5 -6 5 -8 3 C-2.25 0 -2.25 0 0 0 Z " fill="#304156" transform="translate(303,343)"/>
<path d="M0 0 C0.99 0.33 1.98 0.66 3 1 C-1.62 5.62 -6.24 10.24 -11 15 C-11.66 14.67 -12.32 14.34 -13 14 C-12.34 13.360625 -11.68 12.72125 -11 12.0625 C-7.14346256 8.2170765 -3.59166578 4.09075581 0 0 Z " fill="#2BB624" transform="translate(764,523)"/>
<path d="M0 0 C0 3.39593478 -0.52165948 4.06619881 -2.5 6.6875 C-2.9640625 7.31011719 -3.428125 7.93273437 -3.90625 8.57421875 C-4.2671875 9.04472656 -4.628125 9.51523437 -5 10 C-5.66 9.67 -6.32 9.34 -7 9 C-7 8.34 -7 7.68 -7 7 C-7.66 6.67 -8.32 6.34 -9 6 C-6.03 4.02 -3.06 2.04 0 0 Z " fill="#1F9D35" transform="translate(924,791)"/>
<path d="M0 0 C0 0.33 0 0.66 0 1 C-5.73303505 2.57300962 -10.15659442 3.24327778 -16 2 C-10.172082 -1.12209893 -6.45972632 -0.96895895 0 0 Z " fill="#203C55" transform="translate(453,354)"/>
<path d="M0 0 C-0.7734375 0.37125 -0.7734375 0.37125 -1.5625 0.75 C-3.90843581 1.90822931 -3.90843581 1.90822931 -5.68359375 3.05859375 C-10.5441464 6.07945336 -10.5441464 6.07945336 -13.21875 5.61328125 C-13.8065625 5.41089844 -14.394375 5.20851563 -15 5 C-13.58671871 4.18162558 -12.16921654 3.37053781 -10.75 2.5625 C-9.56664062 1.88380859 -9.56664062 1.88380859 -8.359375 1.19140625 C-3.01482702 -1.50741351 -3.01482702 -1.50741351 0 0 Z " fill="#57CA30" transform="translate(762,398)"/>
<path d="M0 0 C1.65 0.33 3.3 0.66 5 1 C1.79239749 4.80635497 -1.40746109 8.54563567 -5 12 C-5.66 11.67 -6.32 11.34 -7 11 C-6.04882866 9.8274869 -5.08882991 8.66212985 -4.125 7.5 C-3.32449219 6.52546875 -3.32449219 6.52546875 -2.5078125 5.53125 C-2.01023437 5.0259375 -1.51265625 4.520625 -1 4 C-0.34 4 0.32 4 1 4 C0.67 2.68 0.34 1.36 0 0 Z " fill="#4FC228" transform="translate(883,398)"/>
<path d="M0 0 C0.99 0.33 1.98 0.66 3 1 C1.02 3.31 -0.96 5.62 -3 8 C-3.99 7.67 -4.98 7.34 -6 7 C-4.02 4.69 -2.04 2.38 0 0 Z " fill="#1F8846" transform="translate(664,892)"/>
<path d="M0 0 C0 0.99 0 1.98 0 3 C-1.24420647 3.5345256 -2.49570936 4.05208611 -3.75 4.5625 C-4.44609375 4.85253906 -5.1421875 5.14257812 -5.859375 5.44140625 C-8.30012784 6.07831803 -9.6403655 5.80248831 -12 5 C-10.37750059 4.16180842 -8.75191503 3.3295884 -7.125 2.5 C-6.22007812 2.0359375 -5.31515625 1.571875 -4.3828125 1.09375 C-2 0 -2 0 0 0 Z " fill="#273D54" transform="translate(422,361)"/>
<path d="M0 0 C7.48291572 6.15034169 7.48291572 6.15034169 10 10 C7 10 7 10 5.17578125 8.3203125 C4.56089844 7.59585938 3.94601562 6.87140625 3.3125 6.125 C2.68988281 5.40570312 2.06726563 4.68640625 1.42578125 3.9453125 C0 2 0 2 0 0 Z " fill="#1BB13B" transform="translate(689,613)"/>
<path d="M0 0 C0.99 0.33 1.98 0.66 3 1 C0.36 3.64 -2.28 6.28 -5 9 C-5.99 8.67 -6.98 8.34 -8 8 C-5.36 5.36 -2.72 2.72 0 0 Z " fill="#4AC022" transform="translate(746,404)"/>
<path d="M0 0 C0.99 0.33 1.98 0.66 3 1 C1.55746343 4.36591866 -0.33264727 6.51047079 -3 9 C-3.75 7.3125 -3.75 7.3125 -4 5 C-2.0625 2.25 -2.0625 2.25 0 0 Z " fill="#223C56" transform="translate(318,898)"/>
<path d="M0 0 C1.37562854 1.28965176 2.70766393 2.62689293 4 4 C4 4.66 4 5.32 4 6 C1.36 5.67 -1.28 5.34 -4 5 C-4 4.34 -4 3.68 -4 3 C-2.68 3 -1.36 3 0 3 C0 2.01 0 1.02 0 0 Z " fill="#3B485E" transform="translate(968,926)"/>
<path d="M0 0 C1.07765625 0.11085938 2.1553125 0.22171875 3.265625 0.3359375 C4.08546875 0.43132813 4.9053125 0.52671875 5.75 0.625 C5.75 0.955 5.75 1.285 5.75 1.625 C4.02185839 1.82172365 2.29240803 2.00696799 0.5625 2.1875 C-0.40042969 2.29191406 -1.36335938 2.39632812 -2.35546875 2.50390625 C-5.19233377 2.62258751 -7.50423671 2.30265639 -10.25 1.625 C-6.69181064 -0.63773207 -4.12452049 -0.44831744 0 0 Z " fill="#29435A" transform="translate(333.25,921.375)"/>
<path d="M0 0 C0 3 0 3 -1 6 C-2.875 7.75 -2.875 7.75 -5 9 C-5.99 8.67 -6.98 8.34 -8 8 C-5.36 5.36 -2.72 2.72 0 0 Z " fill="#1DAB2E" transform="translate(606,557)"/>
<path d="M0 0 C-1.5830577 4.2742558 -4.50568404 6.26531794 -8 9 C-7.53918323 4.85264908 -4.48412936 0 0 0 Z " fill="#48C138" transform="translate(788,501)"/>
<path d="M0 0 C0.99 0.33 1.98 0.66 3 1 C1.02 3.31 -0.96 5.62 -3 8 C-3.99 7.34 -4.98 6.68 -6 6 C-4.02 4.02 -2.04 2.04 0 0 Z " fill="#59CA37" transform="translate(737,413)"/>
<path d="M0 0 C4 0 4 0 7 1 C6.34 2.32 5.68 3.64 5 5 C4.01 5 3.02 5 2 5 C1.34 3.35 0.68 1.7 0 0 Z " fill="#2C913A" transform="translate(630,938)"/>
<path d="M0 0 C2.84383123 1.2748209 5.13754018 2.45137078 7 5 C6.57421875 7.1015625 6.57421875 7.1015625 6 9 C4.99406757 7.8803014 3.9954151 6.7540588 3 5.625 C2.443125 4.99851562 1.88625 4.37203125 1.3125 3.7265625 C0 2 0 2 0 0 Z " fill="#18933C" transform="translate(628,723)"/>
<path d="M0 0 C0.33 0.66 0.66 1.32 1 2 C-0.28062485 3.7074998 -1.61767557 5.37373596 -3 7 C-3.66 7 -4.32 7 -5 7 C-5 7.66 -5 8.32 -5 9 C-5.99 8.67 -6.98 8.34 -8 8 C-5.36 5.36 -2.72 2.72 0 0 Z " fill="#F5FCF5" transform="translate(752,539)"/>
<path d="M0 0 C-2.91765 1.9451 -4.62537285 2.45276317 -8 3 C-8.33 1.68 -8.66 0.36 -9 -1 C-5.79937313 -2.60031344 -3.27728194 -1.03173691 0 0 Z " fill="#E8EBED" transform="translate(360,371)"/>
<path d="M0 0 C0.6875 1.8125 0.6875 1.8125 1 4 C-0.4375 5.75 -0.4375 5.75 -2 7 C-2.12375 6.195625 -2.2475 5.39125 -2.375 4.5625 C-2.684375 3.2940625 -2.684375 3.2940625 -3 2 C-3.66 1.67 -4.32 1.34 -5 1 C-3 0 -3 0 0 0 Z " fill="#119132" transform="translate(917,798)"/>
<path d="M0 0 C2 4 2 4 1.875 6.125 C1 8 1 8 -3 10 C-2.01 6.7 -1.02 3.4 0 0 Z " fill="#CBD0D7" transform="translate(520,768)"/>
<path d="M0 0 C-1.25 1.5625 -1.25 1.5625 -3 3 C-5.0625 2.625 -5.0625 2.625 -7 2 C-7.99 2.495 -7.99 2.495 -9 3 C-9.66 2.34 -10.32 1.68 -11 1 C-3.57142857 -1.42857143 -3.57142857 -1.42857143 0 0 Z " fill="#C2C8D1" transform="translate(316,928)"/>
<path d="M0 0 C3.57104439 1.87949705 5.54744301 3.17053157 7 7 C4 7 4 7 1.8125 5.1875 C0 3 0 3 0 0 Z " fill="#239344" transform="translate(694,794)"/>
<path d="M0 0 C0.66 0 1.32 0 2 0 C0.73058503 3.91402949 -0.51167694 5.79072873 -4 8 C-4.66 7.67 -5.32 7.34 -6 7 C-5.04882866 5.8274869 -4.08882991 4.66212985 -3.125 3.5 C-2.59132813 2.8503125 -2.05765625 2.200625 -1.5078125 1.53125 C-0.76144531 0.77328125 -0.76144531 0.77328125 0 0 Z " fill="#E5E8EC" transform="translate(551,718)"/>
<path d="M0 0 C2.31 1.98 4.62 3.96 7 6 C6.34 6.66 5.68 7.32 5 8 C3.02 5.69 1.04 3.38 -1 1 C-0.67 0.67 -0.34 0.34 0 0 Z " fill="#17AE3B" transform="translate(703,628)"/>
<path d="M0 0 C2 1 2 1 3 3 C1.02 3.66 -0.96 4.32 -3 5 C-3.66 4.34 -4.32 3.68 -5 3 C-2.625 1.4375 -2.625 1.4375 0 0 Z " fill="#27435B" transform="translate(690,912)"/>
<path d="M0 0 C-2.93828597 2.50298434 -5.17902761 3.46930939 -9 4 C-8 1 -8 1 -5.625 -0.25 C-3 -1 -3 -1 0 0 Z " fill="#077134" transform="translate(697,895)"/>
<path d="M0 0 C-0.33 0.66 -0.66 1.32 -1 2 C-4.23097953 2.86159454 -6.22486274 3.30597523 -9.375 2.0625 C-9.91125 1.711875 -10.4475 1.36125 -11 1 C-7.32589215 -0.17571451 -3.83070817 -0.07366746 0 0 Z " fill="#3A4E62" transform="translate(365,884)"/>
<path d="M0 0 C3.36720387 1.39332574 4.9859524 2.9789286 7 6 C6.67 6.66 6.34 7.32 6 8 C4.99403703 7.0479279 3.99538437 6.08812654 3 5.125 C2.443125 4.59132813 1.88625 4.05765625 1.3125 3.5078125 C0 2 0 2 0 0 Z " fill="#0A9034" transform="translate(617,711)"/>
<path d="M0 0 C2.64752004 2.57784846 4.94432065 4.91648098 7 8 C6.01 8 5.02 8 4 8 C0 3.77142857 0 3.77142857 0 0 Z " fill="#1E9E43" transform="translate(611,703)"/>
<path d="M0 0 C0 0.99 0 1.98 0 3 C-2.95664519 4.4783226 -5.74229737 4.06032783 -9 4 C-6.43425105 1.43425105 -3.68548192 0 0 0 Z " fill="#263F56" transform="translate(317,337)"/>
<path d="M0 0 C0.66 0.33 1.32 0.66 2 1 C1.67 1.99 1.34 2.98 1 4 C-1.375 4.625 -1.375 4.625 -4 5 C-4.66 4.34 -5.32 3.68 -6 3 C-4.03533587 1.93224776 -2.03144641 0.93446535 0 0 Z " fill="#E4E7EA" transform="translate(381,307)"/>
<path d="M0 0 C0.66 0.66 1.32 1.32 2 2 C0.68 3.65 -0.64 5.3 -2 7 C-2.99 6.67 -3.98 6.34 -5 6 C-3.35 4.02 -1.7 2.04 0 0 Z " fill="#44BC2F" transform="translate(336,865)"/>
<path d="M0 0 C0.99 0.33 1.98 0.66 3 1 C1.02 3.97 1.02 3.97 -1 7 C-1.66 5.68 -2.32 4.36 -3 3 C-2.01 2.01 -1.02 1.02 0 0 Z " fill="#153149" transform="translate(407,368)"/>
<path d="M0 0 C0 0.99 0 1.98 0 3 C-2.375 3.625 -2.375 3.625 -5 4 C-5.66 3.34 -6.32 2.68 -7 2 C-4.35261084 0.5393715 -3.10551666 0 0 0 Z " fill="#2E465C" transform="translate(439,287)"/>
<path d="M0 0 C1.875 1.1875 1.875 1.1875 2.875 3.1875 C-2.875 2.4375 -2.875 2.4375 -5.125 0.1875 C-2.125 -0.8125 -2.125 -0.8125 0 0 Z " fill="#49B435" transform="translate(937.125,871.8125)"/>
<path d="M0 0 C1.32 0.66 2.64 1.32 4 2 C2 4 2 4 -1.125 4.125 C-2.548125 4.063125 -2.548125 4.063125 -4 4 C-2.68 2.68 -1.36 1.36 0 0 Z " fill="#51BA41" transform="translate(906,842)"/>
<path d="M0 0 C2.64 0.33 5.28 0.66 8 1 C8 1.66 8 2.32 8 3 C5.36 2.67 2.72 2.34 0 2 C0 1.34 0 0.68 0 0 Z " fill="#2E4157" transform="translate(497,807)"/>
<path d="M0 0 C2.46800047 1.15173355 4.04783565 2.04783565 6 4 C5.67 4.99 5.34 5.98 5 7 C3.29115995 5.37660195 1.62553283 3.70680947 0 2 C0 1.34 0 0.68 0 0 Z " fill="#0D9333" transform="translate(605,698)"/>
<path d="M0 0 C2.31 1.98 4.62 3.96 7 6 C6.01 6.33 5.02 6.66 4 7 C0 2.25 0 2.25 0 0 Z " fill="#0BA937" transform="translate(712,638)"/>
</svg>
