<?xml version="1.0" encoding="UTF-8"?>
<svg version="1.1" xmlns="http://www.w3.org/2000/svg" width="1408" height="768">
<path d="M0 0 C464.64 0 929.28 0 1408 0 C1408 253.44 1408 506.88 1408 768 C943.36 768 478.72 768 0 768 C0 514.56 0 261.12 0 0 Z " fill="#F4F6F7" transform="translate(0,0)"/>
<path d="M0 0 C0.24013808 15.64010453 -0.51318498 31.14419382 -1.5 46.75 C-1.64508651 49.11585143 -1.789621 51.48173678 -1.93359375 53.84765625 C-2.28272099 59.56550954 -2.63857819 65.28291134 -3 71 C-4.10338218 70.0636169 -5.20541029 69.12563812 -6.30688477 68.18701172 C-6.92072525 67.66485077 -7.53456573 67.14268982 -8.16700745 66.60470581 C-10.87952853 64.23001076 -13.41223193 61.69567399 -15.9375 59.125 C-16.67709961 58.37863281 -16.67709961 58.37863281 -17.43164062 57.6171875 C-18.62345992 56.41379715 -19.81208678 55.20724635 -21 54 C-25.13613086 57.69865548 -27.94760353 62.16775955 -31 66.75 C-35.30963014 73.14092294 -39.71563072 79.42148097 -44.375 85.5625 C-48.04918678 90.40633426 -51.6575467 95.26973468 -55.11328125 100.2734375 C-57.61378501 103.88700194 -60.1512011 107.47400537 -62.6875 111.0625 C-63.72917448 112.5377549 -64.77084105 114.01301539 -65.8125 115.48828125 C-67.91553383 118.46564625 -70.01986675 121.44208785 -72.125 124.41796875 C-78.1315494 132.91257877 -84.09900854 141.43164119 -90 150 C-88.67356411 152.80581756 -87.18487606 155.2666744 -85.34765625 157.765625 C-84.82389404 158.48290771 -84.30013184 159.20019043 -83.76049805 159.93920898 C-83.20015869 160.70177002 -82.63981934 161.46433105 -82.0625 162.25 C-77.68367175 168.25558091 -73.37411856 174.29628319 -69.1875 180.4375 C-65.54428803 185.77849425 -61.81693358 191.04050754 -57.9921875 196.25390625 C-55.62374562 199.51864084 -53.30365295 202.81434748 -51 206.125 C-50.60151855 206.69436279 -50.20303711 207.26372559 -49.79248047 207.8503418 C-47 211.88111398 -47 211.88111398 -47 213 C-55.3405213 213.64550726 -63.67209514 214.05041186 -72.0390625 213.85546875 C-72.74070526 213.85912445 -73.44234802 213.86278015 -74.16525269 213.86654663 C-79.15844527 213.6783544 -81.59511821 212.19386397 -84.98339844 208.8031311 C-86.81003941 206.473134 -87.83342438 203.9699553 -88.95214844 201.24755859 C-91.01654032 196.81960155 -94.04932543 192.96681238 -96.875 189 C-98.46311795 186.68698304 -100.03869395 184.365869 -101.61230469 182.04296875 C-102.49122385 180.7490216 -103.37653026 179.45937085 -104.27050781 178.17578125 C-107 174.2169392 -107 174.2169392 -107 172 C-107.66 172 -108.32 172 -109 172 C-109.268125 172.73476563 -109.53625 173.46953125 -109.8125 174.2265625 C-110.97246918 176.93570106 -112.26751455 179.00116177 -114 181.375 C-117.09340636 185.6928797 -120.06894197 190.07148724 -123 194.5 C-133.84567901 210.84567901 -133.84567901 210.84567901 -136 213 C-138.3756852 213.0883967 -140.72208674 213.11530305 -143.09765625 213.09765625 C-144.16094398 213.09553383 -144.16094398 213.09553383 -145.24571228 213.09336853 C-147.51801712 213.08775443 -149.79022475 213.07519963 -152.0625 213.0625 C-153.59960796 213.05748681 -155.13671745 213.05292359 -156.67382812 213.04882812 C-160.44925642 213.03778042 -164.22461171 213.02050641 -168 213 C-164.7342891 206.80719087 -161.1036101 201.12068166 -156.9375 195.5 C-155.78045176 193.91855246 -154.62422054 192.33650689 -153.46875 190.75390625 C-152.88867188 189.96129395 -152.30859375 189.16868164 -151.7109375 188.35205078 C-149.08314706 184.73958887 -146.50742979 181.09125309 -143.9375 177.4375 C-143.21469849 176.41088257 -143.21469849 176.41088257 -142.47729492 175.36352539 C-141.4967796 173.97041941 -140.51655699 172.57710736 -139.53662109 171.18359375 C-136.77903703 167.26496778 -134.01398841 163.35160991 -131.25 159.4375 C-130.23434446 157.99871947 -129.2187165 156.55991948 -128.203125 155.12109375 C-127.47609375 154.09113281 -126.7490625 153.06117188 -126 152 C-127.27319557 149.30879389 -128.66094904 146.96461661 -130.46875 144.6015625 C-130.95206787 143.96492676 -131.43538574 143.32829102 -131.93334961 142.67236328 C-132.45034424 141.9967334 -132.96733887 141.32110352 -133.5 140.625 C-137.79284272 134.95903875 -142.01220946 129.25467997 -146.12109375 123.45410156 C-148.5394243 120.04169763 -150.97893062 116.64636923 -153.44140625 113.265625 C-154.03123291 112.45464355 -154.62105957 111.64366211 -155.22875977 110.80810547 C-156.38710816 109.21691317 -157.54766438 107.62732518 -158.71069336 106.03955078 C-159.23928955 105.3123584 -159.76788574 104.58516602 -160.3125 103.8359375 C-160.78300781 103.19188965 -161.25351562 102.5478418 -161.73828125 101.88427734 C-163.00941027 99.98594651 -164.02458841 98.06359083 -165 96 C-160.44726373 95.72617712 -155.89939079 95.52769693 -151.34033203 95.39575195 C-149.79358419 95.34072994 -148.24740097 95.26587245 -146.70263672 95.17016602 C-133.94416591 94.40004528 -133.94416591 94.40004528 -129.38964844 98.14819336 C-127.30343654 100.99829598 -125.64590899 103.87742266 -124 107 C-122.85941559 108.71071731 -121.69869482 110.40822777 -120.515625 112.08984375 C-118.86561863 114.53349926 -117.22113683 116.98065957 -115.58203125 119.43164062 C-112.97339325 123.28829609 -110.50244152 126.88010671 -107 130 C-106.61328125 128.91332031 -106.61328125 128.91332031 -106.21875 127.8046875 C-104.94163069 124.86567575 -103.43673964 122.67292387 -101.5 120.125 C-98.32221141 115.84808381 -95.30234056 111.51122466 -92.375 107.0625 C-84.116773 94.55648812 -75.42445757 82.34061273 -66.69189453 70.16259766 C-63.39472754 65.5633131 -60.13298871 60.93959668 -56.875 56.3125 C-52.30928355 49.83067004 -47.69289853 43.39062358 -43 37 C-44.8253125 36.4740625 -44.8253125 36.4740625 -46.6875 35.9375 C-53.20117877 33.79402104 -59.0504996 30.35636422 -65 27 C-63.32272926 23.64545851 -59.51900732 22.96170325 -56.1796875 21.62109375 C-55.37666702 21.29266983 -54.57364655 20.96424591 -53.74629211 20.62586975 C-51.12527699 19.55617923 -48.50032959 18.49655255 -45.875 17.4375 C-44.08749148 16.71131894 -42.30013799 15.98475612 -40.51293945 15.2578125 C-35.34670535 13.16002066 -30.17472856 11.07673972 -25 9 C-24.3015094 8.71956848 -23.6030188 8.43913696 -22.88336182 8.15020752 C-18.98929002 6.58851042 -15.0907602 5.03857984 -11.1875 3.5 C-10.2598584 3.13318115 -9.3322168 2.7663623 -8.37646484 2.38842773 C-7.54453613 2.06430908 -6.71260742 1.74019043 -5.85546875 1.40625 C-5.15059326 1.13103516 -4.44571777 0.85582031 -3.71948242 0.57226562 C-2 0 -2 0 0 0 Z " fill="#135080" transform="translate(1072,243)"/>
<path d="M0 0 C9.9 0 19.8 0 30 0 C36.81192443 14.61884907 43.58965577 29.24915307 50.25 43.9375 C55.78346561 56.13840378 61.34633825 68.32542074 66.9375 80.5 C67.28453979 81.25642792 67.63157959 82.01285583 67.98913574 82.79220581 C69.00097476 84.99730063 70.0138733 87.20190455 71.02734375 89.40625 C71.35082794 90.11040543 71.67431213 90.81456085 72.00759888 91.54005432 C73.7419576 95.30519326 75.49828948 99.05862327 77.28173828 102.80078125 C77.83952721 103.97368713 77.83952721 103.97368713 78.40858459 105.17028809 C79.12422987 106.67202358 79.84319615 108.17218218 80.56590271 109.67053223 C83 114.77910778 83 114.77910778 83 117 C73.1 117 63.2 117 53 117 C47.555 105.12 47.555 105.12 42 93 C23.85 93 5.7 93 -13 93 C-16.3 100.92 -19.6 108.84 -23 117 C-32.57 117 -42.14 117 -52 117 C-51.08422646 112.42113232 -49.67057948 108.74680275 -47.7109375 104.578125 C-47.37612366 103.85440201 -47.04130981 103.13067902 -46.6963501 102.38502502 C-45.97286828 100.82270192 -45.24695074 99.26150493 -44.51885986 97.70132446 C-42.95891697 94.35832214 -41.41096618 91.00981012 -39.86203003 87.66169739 C-39.06523798 85.93987756 -38.26780825 84.21835268 -37.46975708 82.49711609 C-33.81757011 74.61905978 -30.21258996 66.72014055 -26.625 58.8125 C-26.03036603 57.50300597 -25.43572076 56.19351708 -24.84106445 54.8840332 C-16.54061809 36.59847006 -8.27211861 18.2983894 0 0 Z " fill="#123F6B" transform="translate(688,339)"/>
<path d="M0 0 C30.03 0 60.06 0 91 0 C91 7.26 91 14.52 91 22 C70.54 22 50.08 22 29 22 C29 31.57 29 41.14 29 51 C47.15 51 65.3 51 84 51 C84 58.59 84 66.18 84 74 C65.85 74 47.7 74 29 74 C29 88.19 29 102.38 29 117 C19.43 117 9.86 117 0 117 C0 102.81 0 88.62 0 74 C-14.52 74 -29.04 74 -44 74 C-46.64 68.72 -49.28 63.44 -52 58 C-52.99 56.35 -53.98 54.7 -55 53 C-55 52.34 -55 51.68 -55 51 C-36.85 51 -18.7 51 0 51 C0 34.17 0 17.34 0 0 Z " fill="#15436F" transform="translate(809,339)"/>
<path d="M0 0 C-1.966369 7.36988707 -4.69582578 14.13045202 -8 21 C-12.00617394 20.33972318 -15.49443813 19.09103182 -19.25 17.5625 C-30.48016246 13.21615077 -43.61028951 9.84850582 -55.25 14.8125 C-57.96451262 16.18553836 -60.02947715 17.67014651 -62 20 C-63.17761741 23.32416555 -63.17761741 23.32416555 -63 27 C-59.60488394 32.1186903 -56.61077282 34.0459575 -50.625 35.5 C-49.89966064 35.6966626 -49.17432129 35.8933252 -48.42700195 36.09594727 C-45.01361929 37.01124585 -41.58378108 37.85593192 -38.15283203 38.70263672 C-5.93411466 46.6550555 -5.93411466 46.6550555 3.15234375 60.79296875 C6.72545155 68.2520371 6.31258143 78.64461617 3.96875 86.421875 C-1.00458794 97.30795916 -9.32710977 103.71436582 -20.2890625 107.8671875 C-39.6209657 114.65598294 -63.33262437 112.76937313 -81.71655273 103.95507812 C-85.94947308 101.83694221 -90.05641292 99.62905805 -94 97 C-93.38367054 92.04001528 -91.20164371 88.06328034 -88.9375 83.6875 C-88.56044922 82.94693359 -88.18339844 82.20636719 -87.79492188 81.44335938 C-86.86871843 79.62612478 -85.93509371 77.81267596 -85 76 C-80.83709638 77.28515045 -77.1482039 78.88097663 -73.3125 80.9375 C-64.05308336 85.56155544 -56.17879489 87.2560229 -45.875 87.375 C-45.0396875 87.38901855 -44.204375 87.40303711 -43.34375 87.41748047 C-36.87335857 87.36772785 -30.02519502 86.56683213 -24.9375 82.25 C-23.54392145 78.90541149 -23.49671912 76.58587629 -24 73 C-28.02655389 67.69932358 -32.52193563 66.55940354 -38.6875 65 C-39.61361084 64.74927734 -40.53972168 64.49855469 -41.49389648 64.24023438 C-45.17098111 63.24753148 -48.85776502 62.29443111 -52.54589844 61.34375 C-66.81321649 57.65143963 -79.77488261 53.96567916 -88.8125 41.5 C-92.45579775 33.82989947 -93.41621152 25.59242618 -91.3125 17.28515625 C-87.9857335 8.28902518 -82.44928414 0.72519208 -74 -4 C-51.81572445 -13.48922769 -20.70594168 -13.80396112 0 0 Z " fill="#113E6C" transform="translate(472,347)"/>
<path d="M0 0 C29.7 0 59.4 0 90 0 C90 7.26 90 14.52 90 22 C69.54 22 49.08 22 28 22 C28 31.57 28 41.14 28 51 C46.48 51 64.96 51 84 51 C84 58.59 84 66.18 84 74 C65.85 74 47.7 74 29 74 C29 88.19 29 102.38 29 117 C19.43 117 9.86 117 0 117 C0 78.39 0 39.78 0 0 Z " fill="#103E6B" transform="translate(548,339)"/>
<path d="M0 0 C9.24 0 18.48 0 28 0 C28 38.61 28 77.22 28 117 C18.76 117 9.52 117 0 117 C0 78.39 0 39.78 0 0 Z " fill="#113E6A" transform="translate(495,339)"/>
<path d="M0 0 C0.24059186 9.76401969 -0.67223927 19.40668168 -1.5 29.125 C-1.64490774 30.8619478 -1.78944213 32.59892679 -1.93359375 34.3359375 C-2.28475711 38.55766374 -2.64097714 42.77893519 -3 47 C-6.40162087 45.41051534 -8.32494326 43.76641381 -10.75 40.875 C-11.36359375 40.15054688 -11.9771875 39.42609375 -12.609375 38.6796875 C-13.06828125 38.12539063 -13.5271875 37.57109375 -14 37 C-17.7036731 38.61487169 -20.5062977 40.95346272 -23.625 43.5 C-44.82119605 60.2359393 -71.38257644 69.43602868 -97.5625 74.8125 C-98.95819214 75.10459351 -98.95819214 75.10459351 -100.38208008 75.40258789 C-117.51932692 78.71115608 -134.81947049 79.31262908 -152.2253418 79.20581055 C-155.355387 79.18724563 -158.48513912 79.18530395 -161.61523438 79.18554688 C-163.6354192 79.18064 -165.65560206 79.17481534 -167.67578125 79.16796875 C-168.59668045 79.16685593 -169.51757965 79.1657431 -170.46638489 79.16459656 C-175.73023461 79.12611044 -180.79000491 78.7602096 -186 78 C-186 77.67 -186 77.34 -186 77 C-185.37359619 76.98541748 -184.74719238 76.97083496 -184.10180664 76.95581055 C-132.07708625 75.62039142 -71.51807358 66.09320267 -33.109375 27.41015625 C-31.79389927 26.03705782 -31.79389927 26.03705782 -32 24 C-35.96 22.02 -39.92 20.04 -44 18 C-44 17.34 -44 16.68 -44 16 C-43.36723145 15.764021 -42.73446289 15.52804199 -42.08251953 15.28491211 C-39.09620386 14.17037741 -36.11050415 13.05420674 -33.125 11.9375 C-31.50150635 11.33047241 -31.50150635 11.33047241 -29.84521484 10.71118164 C-22.32127618 7.89039751 -14.82227676 5.01293764 -7.35986328 2.03295898 C-2.21406856 0 -2.21406856 0 0 0 Z " fill="#1A6A9E" transform="translate(999,249)"/>
<path d="M0 0 C2.87978169 2.47751317 4.07101013 5.04157555 5.5234375 8.5234375 C5.9875 9.62816406 6.4515625 10.73289062 6.9296875 11.87109375 C7.40664063 13.02738281 7.88359375 14.18367188 8.375 15.375 C8.84421875 16.49261719 9.3134375 17.61023438 9.796875 18.76171875 C13.01155095 26.46095645 16.00173328 34.20450652 19 42 C7.12 42 -4.76 42 -17 42 C-15.04975172 36.14925517 -13.07088313 30.53853465 -10.64453125 24.90234375 C-10.18478157 23.82274132 -10.18478157 23.82274132 -9.71574402 22.72132874 C-8.75128942 20.45862967 -7.7819946 18.19804347 -6.8125 15.9375 C-6.15136903 14.38881001 -5.49055898 12.83998298 -4.83007812 11.29101562 C-3.22375005 7.52575257 -1.61308247 3.76237405 0 0 Z " fill="#F6FAFB" transform="translate(702,367)"/>
<path d="M0 0 C0.99 0.495 0.99 0.495 2 1 C-3.75 5 -3.75 5 -6 5 C-6.4640625 5.9590625 -6.4640625 5.9590625 -6.9375 6.9375 C-8 9 -8 9 -9 10 C-10.010625 10.103125 -11.02125 10.20625 -12.0625 10.3125 C-16.02299967 11.00401582 -18.65998863 12.15559605 -22.15234375 14.01953125 C-24.37388883 15.19840612 -26.64922817 16.11051877 -29 17 C-29.928125 17.37125 -30.85625 17.7425 -31.8125 18.125 C-32.534375 18.41375 -33.25625 18.7025 -34 19 C-34 20.65 -34 22.3 -34 24 C-28.72890428 23.3242185 -23.98018063 21.77203729 -19 20 C-18.24589844 19.73832031 -17.49179687 19.47664063 -16.71484375 19.20703125 C-12.48965521 17.72176628 -12.48965521 17.72176628 -9 15 C-7.01171875 14.65625 -7.01171875 14.65625 -4.6875 14.5 C-1.12379045 14.18386448 1.74436993 13.57530487 5 12 C4.67 11.01 4.34 10.02 4 9 C6.97 9 9.94 9 13 9 C0.74731147 21.25268853 -24.23149054 25.45191686 -40.5625 28.8125 C-41.49312256 29.00730957 -42.42374512 29.20211914 -43.38256836 29.40283203 C-60.51993573 32.71052899 -77.81945279 33.31262919 -95.2253418 33.20581055 C-98.355387 33.18724563 -101.48513912 33.18530395 -104.61523438 33.18554688 C-106.6354192 33.18064 -108.65560206 33.17481534 -110.67578125 33.16796875 C-111.59668045 33.16685593 -112.51757965 33.1657431 -113.46638489 33.16459656 C-118.73023461 33.12611044 -123.79000491 32.7602096 -129 32 C-129 31.67 -129 31.34 -129 31 C-128.37359619 30.98541748 -127.74719238 30.97083496 -127.10180664 30.95581055 C-84.10770751 29.85219784 -39.3617128 23.24252066 -1.84985352 0.84448242 C-1.23940186 0.56580322 -0.6289502 0.28712402 0 0 Z " fill="#1E638F" transform="translate(942,295)"/>
<path d="M0 0 C0.33 0 0.66 0 1 0 C1.00808685 1.05600403 1.01617371 2.11200806 1.02450562 3.20001221 C1.10195657 13.14698769 1.18969326 23.09382621 1.28752708 33.04062271 C1.33749435 38.15449556 1.38382443 43.26834771 1.421875 48.38232422 C1.45872226 53.31666323 1.50508083 58.25082923 1.55806351 63.18502045 C1.5766104 65.06845823 1.59171727 66.95193311 1.60334396 68.83542633 C1.62020128 71.47151952 1.64923511 74.10721622 1.68115234 76.74316406 C1.68331253 77.52359573 1.68547272 78.3040274 1.68769836 79.10810852 C1.74699753 82.93639537 2.00594333 85.70628525 4 89 C4.13525391 91.38183594 4.13525391 91.38183594 3.9765625 93.984375 C3.925 94.91894531 3.8734375 95.85351562 3.8203125 96.81640625 C3.75585938 97.78449219 3.69140625 98.75257813 3.625 99.75 C3.56828125 100.73355469 3.5115625 101.71710938 3.453125 102.73046875 C3.31192448 105.154411 3.16054205 107.57727459 3 110 C3.66 110 4.32 110 5 110 C5 111.65 5 113.3 5 115 C7.64 114.67 10.28 114.34 13 114 C13 114.66 13 115.32 13 116 C17.62 116 22.24 116 27 116 C27 101.48 27 86.96 27 72 C45.15 72 63.3 72 82 72 C82 65.4 82 58.8 82 52 C82.66 51.67 83.32 51.34 84 51 C84 58.59 84 66.18 84 74 C65.85 74 47.7 74 29 74 C29 88.19 29 102.38 29 117 C19.43 117 9.86 117 0 117 C0 78.39 0 39.78 0 0 Z " fill="#45607B" transform="translate(548,339)"/>
<path d="M0 0 C0 0.33 0 0.66 0 1 C4.29 1.99 8.58 2.98 13 4 C4.50827403 12.49172597 -23.79528697 9.22170177 -35.3840332 9.25537109 C-37.50602288 9.25516803 -39.62801301 9.2533838 -41.75 9.25 C-42.79054535 9.24913391 -43.8310907 9.24826782 -44.90316772 9.24737549 C-47.90951746 9.24091856 -50.91559862 9.22472388 -53.921875 9.203125 C-54.81991348 9.1987442 -55.71795197 9.1943634 -56.64320374 9.18984985 C-61.84271807 9.13194174 -66.8526905 8.74427918 -72 8 C-72 7.67 -72 7.34 -72 7 C-71.06039429 6.97812622 -71.06039429 6.97812622 -70.10180664 6.95581055 C-49.92934242 6.43800489 -29.79536217 5.11531547 -10.0859375 0.55078125 C-6.67147584 -0.05863533 -3.46133929 -0.09154676 0 0 Z " fill="#2A577B" transform="translate(885,319)"/>
<path d="M0 0 C0.66 0.33 1.32 0.66 2 1 C0.49131514 6.65756824 0.49131514 6.65756824 -2.0625 8.4375 C-4.41247896 9.95580583 -4.41247896 9.95580583 -4.375 13.5 C-4.684375 15.2325 -4.684375 15.2325 -5 17 C-6.98166034 18.0358679 -8.98473831 19.03112419 -11 20 C-12.99175304 22.48684594 -14.47678315 25.20828484 -16 28 C-16.76977599 29.33394405 -17.54052499 30.66732735 -18.3125 32 C-18.869375 32.99 -19.42625 33.98 -20 35 C-20.66 35 -21.32 35 -22 35 C-22 35.66 -22 36.32 -22 37 C-20.35 37 -18.7 37 -17 37 C-17.33 37.99 -17.66 38.98 -18 40 C-16.824375 39.7525 -16.824375 39.7525 -15.625 39.5 C-11.06033858 38.87039153 -6.59927399 38.91819473 -2 39 C-1.67 38.01 -1.34 37.02 -1 36 C1.32671865 34.98470459 3.6603447 33.98511802 6 33 C6.66 32.01 7.32 31.02 8 30 C8.66 30.66 9.32 31.32 10 32 C9.02223933 33.48009643 8.0427506 34.95905144 7.0625 36.4375 C6.51722656 37.26121094 5.97195313 38.08492188 5.41015625 38.93359375 C4 41 4 41 3 42 C0.6243148 42.0883967 -1.72208674 42.11530305 -4.09765625 42.09765625 C-5.16094398 42.09553383 -5.16094398 42.09553383 -6.24571228 42.09336853 C-8.51801712 42.08775443 -10.79022475 42.07519963 -13.0625 42.0625 C-14.59960796 42.05748681 -16.13671745 42.05292359 -17.67382812 42.04882812 C-21.44925642 42.03778042 -25.22461171 42.02050641 -29 42 C-25.71404727 35.76965828 -22.05762077 30.03714013 -17.875 24.375 C-17.31530518 23.60881348 -16.75561035 22.84262695 -16.17895508 22.05322266 C-14.45736453 19.6986408 -12.72893725 17.34919041 -11 15 C-9.90186122 13.50035322 -8.80418929 12.00036445 -7.70703125 10.5 C-5.143325 6.996079 -2.57353534 3.49670734 0 0 Z " fill="#15385C" transform="translate(933,414)"/>
<path d="M0 0 C29.7 0 59.4 0 90 0 C90 7.26 90 14.52 90 22 C69.54 22 49.08 22 28 22 C28 21.67 28 21.34 28 21 C48.13 21 68.26 21 89 21 C88.01 15.555 88.01 15.555 87 10 C87 7.03 87 4.06 87 1 C58.62 1 30.24 1 1 1 C1 17.5 1 34 1 51 C0.67 51 0.34 51 0 51 C0 34.17 0 17.34 0 0 Z " fill="#09284B" transform="translate(810,339)"/>
<path d="M0 0 C10.56 0 21.12 0 32 0 C32 0.33 32 0.66 32 1 C23.42 1.33 14.84 1.66 6 2 C6 2.99 6 3.98 6 5 C6 5.66 6 6.32 6 7 C6.99 7.33 7.98 7.66 9 8 C12 12.33333333 12 12.33333333 12 15 C12.66 15 13.32 15 14 15 C14.33 15.99 14.66 16.98 15 18 C15.66 18.66 16.32 19.32 17 20 C17.95715906 21.40345903 18.89215467 22.82212915 19.8125 24.25 C21.67647498 27.0962167 23.56551698 29.7585164 25.8125 32.3125 C27.87304626 34.84402826 28.32604831 35.96721739 29 39 C30.485 39.495 30.485 39.495 32 40 C32.309375 40.825 32.61875 41.65 32.9375 42.5 C33.288125 43.325 33.63875 44.15 34 45 C36.04105639 45.88693303 36.04105639 45.88693303 38 46 C38.185625 46.8971875 38.185625 46.8971875 38.375 47.8125 C38.95475985 50.26231348 38.95475985 50.26231348 41 53 C40.67 53.99 40.34 54.98 40 56 C34.00588209 48.37473938 28.2504748 40.61977818 22.69018555 32.67236328 C18.35123084 26.47385656 13.92399931 20.34262025 9.4519043 14.23950195 C8.94312744 13.54042725 8.43435059 12.84135254 7.91015625 12.12109375 C7.46808838 11.5170874 7.02602051 10.91308105 6.57055664 10.29077148 C4.2692054 6.93408273 2.15700954 3.45121526 0 0 Z " fill="#133154" transform="translate(907,339)"/>
<path d="M0 0 C0.66 0.33 1.32 0.66 2 1 C2 1.66 2 2.32 2 3 C2.99 3 3.98 3 5 3 C5.26554688 3.56589844 5.53109375 4.13179688 5.8046875 4.71484375 C6.15789063 5.44832031 6.51109375 6.18179687 6.875 6.9375 C7.22304688 7.66839844 7.57109375 8.39929688 7.9296875 9.15234375 C8.8684977 11.16332459 8.8684977 11.16332459 11 12 C11 12.99 11 13.98 11 15 C12.485 15.495 12.485 15.495 14 16 C14.495 18.475 14.495 18.475 15 21 C15.99 21.33 16.98 21.66 18 22 C19.0625 24.1875 19.0625 24.1875 20 27 C20.37125 28.093125 20.7425 29.18625 21.125 30.3125 C21.41375 31.199375 21.7025 32.08625 22 33 C19.27547957 30.39256031 17.0172937 27.7862497 14.90625 24.6640625 C14.35066406 23.84679687 13.79507813 23.02953125 13.22265625 22.1875 C12.65417969 21.341875 12.08570313 20.49625 11.5 19.625 C10.93152344 18.78710938 10.36304688 17.94921875 9.77734375 17.0859375 C8.67618554 15.46102654 7.57838617 13.83383301 6.484375 12.20410156 C5.56615631 10.84066763 4.6405166 9.48215984 3.703125 8.13183594 C1 4.21278059 1 4.21278059 1 2 C0.34 2 -0.32 2 -1 2 C-1.26554688 2.73089844 -1.53109375 3.46179688 -1.8046875 4.21484375 C-2.99473936 6.98774238 -4.35361924 9.12788132 -6.125 11.5625 C-9.66620186 16.49197177 -12.99888623 21.53659272 -16.30078125 26.62890625 C-18 29 -18 29 -20 30 C-19.57405412 28.55903414 -19.13373367 27.12231288 -18.6875 25.6875 C-18.44386719 24.88699219 -18.20023438 24.08648437 -17.94921875 23.26171875 C-16.94393338 20.86640916 -15.88715053 19.73894499 -14 18 C-13.484375 17.113125 -12.96875 16.22625 -12.4375 15.3125 C-11.963125 14.549375 -11.48875 13.78625 -11 13 C-10.34 13 -9.68 13 -9 13 C-9 12.01 -9 11.02 -9 10 C-8.34 9.67 -7.68 9.34 -7 9 C-6.731875 8.236875 -6.46375 7.47375 -6.1875 6.6875 C-4.73714469 3.40511693 -2.88973708 2.05323424 0 0 Z " fill="#1B3D5F" transform="translate(964,413)"/>
<path d="M0 0 C3.7493289 3.55024949 6.79339351 7.27803912 9.6875 11.5625 C10.07744141 12.12646484 10.46738281 12.69042969 10.86914062 13.27148438 C12.80509159 16.10095117 14.50776005 18.91775695 16 22 C11.39204048 22.1735183 6.78599458 22.30027485 2.17553711 22.38452148 C0.60879384 22.41964735 -0.95772119 22.46736227 -2.52368164 22.52807617 C-15.54503188 23.02015006 -15.54503188 23.02015006 -19.16650391 20.48095703 C-20.90701918 18.11299674 -22 15.98521076 -22 13 C-21.01 13.33 -20.02 13.66 -19 14 C-19.33 14.66 -19.66 15.32 -20 16 C-19.21625 16.12375 -18.4325 16.2475 -17.625 16.375 C-15 17 -15 17 -13 19 C-13 18.67 -13 18.34 -13 18 C-11.35 18 -9.7 18 -8 18 C-8 18.33 -8 18.66 -8 19 C-2.06 19 3.88 19 10 19 C10 18.34 10 17.68 10 17 C9.34 16.34 8.68 15.68 8 15 C7.5359375 14.0409375 7.5359375 14.0409375 7.0625 13.0625 C6.11362743 10.94687454 6.11362743 10.94687454 4.4375 9.5 C2.73683989 7.72539815 2.41205818 6.38993744 2 4 C1.34 4 0.68 4 0 4 C0 2.68 0 1.36 0 0 Z " fill="#133659" transform="translate(1009,434)"/>
<path d="M0 0 C0.82062424 0.00007553 1.64124847 0.00015106 2.48674011 0.00022888 C3.80875175 0.00797081 3.80875175 0.00797081 5.1574707 0.01586914 C6.5161602 0.01799156 6.5161602 0.01799156 7.90229797 0.02015686 C10.79598286 0.02575538 13.68959044 0.03830758 16.58325195 0.05102539 C18.54483938 0.05604058 20.50642801 0.06060346 22.46801758 0.06469727 C27.27729217 0.07572432 32.08650895 0.09298792 36.89575195 0.11352539 C36.89575195 0.77352539 36.89575195 1.43352539 36.89575195 2.11352539 C40.85575195 2.11352539 44.81575195 2.11352539 48.89575195 2.11352539 C48.89575195 2.44352539 48.89575195 2.77352539 48.89575195 3.11352539 C30.74575195 3.11352539 12.59575195 3.11352539 -6.10424805 3.11352539 C-6.43424805 2.45352539 -6.76424805 1.79352539 -7.10424805 1.11352539 C-4.37318294 0.20317036 -2.80531566 -0.00863174 0 0 Z " fill="#10375D" transform="translate(681.104248046875,427.886474609375)"/>
<path d="M0 0 C0.66 0 1.32 0 2 0 C0.6744419 3.62276315 -0.94346955 6.63505348 -3.125 9.8125 C-3.93324219 10.99779297 -3.93324219 10.99779297 -4.7578125 12.20703125 C-5.16773438 12.79871094 -5.57765625 13.39039063 -6 14 C-4.65702354 16.84518195 -3.13651015 19.33535286 -1.27734375 21.87109375 C-0.74254395 22.60448975 -0.20774414 23.33788574 0.34326172 24.09350586 C1.19428467 25.25378296 1.19428467 25.25378296 2.0625 26.4375 C3.2337447 28.05159608 4.40431296 29.66618321 5.57421875 31.28125 C7.21562385 33.54361599 8.85781618 35.80532109 10.50634766 38.0625 C11.80599293 39.84716941 13.09228026 41.64064632 14.375 43.4375 C15.10460937 44.44683594 15.83421875 45.45617187 16.5859375 46.49609375 C17.05257812 47.32238281 17.51921875 48.14867187 18 49 C17.67 49.99 17.34 50.98 17 52 C16.45730469 51.24074219 15.91460938 50.48148437 15.35546875 49.69921875 C14.64003906 48.70535156 13.92460938 47.71148437 13.1875 46.6875 C12.47980469 45.70136719 11.77210938 44.71523438 11.04296875 43.69921875 C9.16567829 41.06549034 9.16567829 41.06549034 7.23828125 39.33203125 C6 38 6 38 6 35 C5.34 35 4.68 35 4 35 C3.49339844 34.04287109 3.49339844 34.04287109 2.9765625 33.06640625 C2.53054688 32.24011719 2.08453125 31.41382813 1.625 30.5625 C1.18414063 29.73878906 0.74328125 28.91507812 0.2890625 28.06640625 C-0.83418559 25.86533422 -0.83418559 25.86533422 -3 25 C-3 24.34 -3 23.68 -3 23 C-3.99 22.67 -4.98 22.34 -6 22 C-8.02065108 18.18321463 -8.676791 14.2825192 -9 10 C-8.34 9.34 -7.68 8.68 -7 8 C-6.34 8.33 -5.68 8.66 -5 9 C-4.896875 8.360625 -4.79375 7.72125 -4.6875 7.0625 C-4.460625 6.381875 -4.23375 5.70125 -4 5 C-3.01 4.67 -2.02 4.34 -1 4 C-0.26676204 1.98491642 -0.26676204 1.98491642 0 0 Z " fill="#193F63" transform="translate(988,379)"/>
<path d="M0 0 C0.11114233 12.05276854 -0.05985709 23.97960136 -1 36 C-3.04321419 32.93517872 -3.26418841 32.14131165 -3.37890625 28.65625 C-3.43014648 27.40521484 -3.43014648 27.40521484 -3.48242188 26.12890625 C-3.52206055 24.82759766 -3.52206055 24.82759766 -3.5625 23.5 C-3.62252054 21.78111379 -3.68617165 20.06234951 -3.75390625 18.34375 C-3.77783447 17.58255859 -3.8017627 16.82136719 -3.82641602 16.03710938 C-3.93699377 13.79811929 -3.93699377 13.79811929 -5 11 C-4.40206327 8.64811553 -3.74118205 6.31074405 -3 4 C-4.03125 4.474375 -5.0625 4.94875 -6.125 5.4375 C-9.38534162 6.84522388 -12.46051083 7.56835498 -16 8 C-15.67 7.01 -15.34 6.02 -15 5 C-12.12890625 3.61328125 -12.12890625 3.61328125 -8.5625 2.3125 C-6.80099609 1.65701172 -6.80099609 1.65701172 -5.00390625 0.98828125 C-2 0 -2 0 0 0 Z " fill="#2F719A" transform="translate(1072,243)"/>
<path d="M0 0 C0 0.33 0 0.66 0 1 C4.29 1.99 8.58 2.98 13 4 C9.18876002 7.81123998 3.07106851 7.09184344 -2.0625 7.1875 C-6.41678417 7.16018329 -9.96436273 6.79361656 -14 5 C-14 4.01 -14 3.02 -14 2 C-9.126739 0.4087311 -5.19209404 -0.21192221 0 0 Z " fill="#1A5A86" transform="translate(885,319)"/>
<path d="M0 0 C4.50802601 1.25805377 7.4912812 2.90407165 11 6 C9.02 6 7.04 6 5 6 C5 5.34 5 4.68 5 4 C4.401875 4.33 3.80375 4.66 3.1875 5 C1 6 1 6 -2 6 C-1.938125 6.86625 -1.87625 7.7325 -1.8125 8.625 C-2.02524853 12.45447354 -3.30488086 14.60976171 -5 18 C-5.02795048 20.06725533 -5.02795048 20.06725533 -4 22 C-1.70152513 23.57314972 -1.70152513 23.57314972 1.0625 24.75 C1.98160156 25.17796875 2.90070313 25.6059375 3.84765625 26.046875 C4.55792969 26.36140625 5.26820313 26.6759375 6 27 C3 28 3 28 0.3359375 26.92578125 C-0.64117187 26.39339844 -1.61828125 25.86101562 -2.625 25.3125 C-3.60726563 24.79300781 -4.58953125 24.27351563 -5.6015625 23.73828125 C-8 22 -8 22 -8.75097656 20.14599609 C-9.05629906 17.51483458 -8.53765819 16.29368844 -7.3828125 13.92578125 C-7.02316406 13.17619141 -6.66351563 12.42660156 -6.29296875 11.65429688 C-5.90753906 10.88150391 -5.52210938 10.10871094 -5.125 9.3125 C-4.55845703 8.1359082 -4.55845703 8.1359082 -3.98046875 6.93554688 C-1.18928571 1.18928571 -1.18928571 1.18928571 0 0 Z " fill="#163456" transform="translate(387,423)"/>
<path d="M0 0 C0.66 0.33 1.32 0.66 2 1 C-3.75 5 -3.75 5 -6 5 C-6.309375 5.639375 -6.61875 6.27875 -6.9375 6.9375 C-8 9 -8 9 -9 10 C-10.010625 10.103125 -11.02125 10.20625 -12.0625 10.3125 C-16.64321526 11.11230743 -19.94449666 12.83935128 -24 15 C-27.3222961 16.4679913 -30.41922889 17.38615352 -34 18 C-34.33 17.34 -34.66 16.68 -35 16 C-33.89785156 15.59910156 -32.79570313 15.19820313 -31.66015625 14.78515625 C-22.49321249 11.3740111 -13.8265915 7.58589091 -5.30883789 2.75805664 C-3.56803245 1.78525976 -1.787036 0.8850083 0 0 Z " fill="#2D6489" transform="translate(942,295)"/>
<path d="M0 0 C0.66 0.66 1.32 1.32 2 2 C0.68 2.99 -0.64 3.98 -2 5 C-1.27845688 8.27310895 -1.27845688 8.27310895 1.9375 9.6875 C4.75106489 11.13130643 4.75106489 11.13130643 7 11 C7 11.66 7 12.32 7 13 C7.99 13.33 8.98 13.66 10 14 C7.62077693 14.84205836 6.40070408 15.14174203 3.98535156 14.28735352 C3.2940918 13.90506592 2.60283203 13.52277832 1.890625 13.12890625 C1.13652344 12.71962891 0.38242187 12.31035156 -0.39453125 11.88867188 C-1.17183594 11.45103516 -1.94914063 11.01339844 -2.75 10.5625 C-3.54277344 10.12873047 -4.33554687 9.69496094 -5.15234375 9.24804688 C-7.10780809 8.17607546 -9.05635908 7.09321878 -11 6 C-9.5836933 3.1673866 -7.85502707 2.98292167 -4.9375 1.875 C-4.01839844 1.52179688 -3.09929688 1.16859375 -2.15234375 0.8046875 C-1.44207031 0.53914063 -0.73179687 0.27359375 0 0 Z " fill="#246993" transform="translate(1018,264)"/>
<path d="M0 0 C18.15 0 36.3 0 55 0 C55 0.33 55 0.66 55 1 C38.5 1.33 22 1.66 5 2 C5.33 5.3 5.66 8.6 6 12 C0 4 0 4 0 0 Z " fill="#092D54" transform="translate(755,391)"/>
<path d="M0 0 C0.33 0.66 0.66 1.32 1 2 C1.66 2 2.32 2 3 2 C3 2.66 3 3.32 3 4 C7.62 4 12.24 4 17 4 C17 4.33 17 4.66 17 5 C20.3 5 23.6 5 27 5 C27.33 3.35 27.66 1.7 28 0 C30.76390737 2.40339772 31.04065919 3.16263678 32 7 C22.1 7 12.2 7 2 7 C0 3 0 3 0 0 Z " fill="#163B5F" transform="translate(739,449)"/>
<path d="M0 0 C0.99 0.66 1.98 1.32 3 2 C1.47033894 5.53950267 -0.17594828 8.3465073 -3 11 C-7.49392951 12.13807306 -11.77507011 11.85404485 -16.375 11.5625 C-17.58800781 11.52189453 -18.80101562 11.48128906 -20.05078125 11.43945312 C-23.03795941 11.33360823 -26.01691238 11.18592651 -29 11 C-29 10.67 -29 10.34 -29 10 C-22.30386804 9.202163 -15.74233419 8.87089147 -9 9 C-8.67 8.01 -8.34 7.02 -8 6 C-5.66666667 5 -3.33333333 4 -1 3 C-0.67 2.01 -0.34 1.02 0 0 Z " fill="#123B64" transform="translate(940,444)"/>
<path d="M0 0 C0.96486328 -0.00257813 1.92972656 -0.00515625 2.92382812 -0.0078125 C4.43299805 0.00378906 4.43299805 0.00378906 5.97265625 0.015625 C6.97490234 0.00789063 7.97714844 0.00015625 9.00976562 -0.0078125 C9.97591797 -0.00523437 10.94207031 -0.00265625 11.9375 0 C12.81913818 0.00225586 13.70077637 0.00451172 14.60913086 0.00683594 C17.17751574 0.28081078 18.82062039 0.97040931 21.03515625 2.265625 C18.29191661 3.18003821 16.65756404 3.39410576 13.83203125 3.3984375 C13.01605469 3.39972656 12.20007813 3.40101563 11.359375 3.40234375 C10.50988281 3.39847656 9.66039062 3.39460938 8.78515625 3.390625 C7.95113281 3.39449219 7.11710937 3.39835937 6.2578125 3.40234375 C1.41082639 3.39473467 -3.18598017 3.07932339 -7.96484375 2.265625 C-4.71393365 0.0983516 -3.76138862 0.00963664 0 0 Z " fill="#13385F" transform="translate(423.96484375,336.734375)"/>
<path d="M0 0 C0.33 0 0.66 0 1 0 C1.33 5.28 1.66 10.56 2 16 C-2.55451723 12.17420552 -6.84530689 8.25602708 -11 4 C-10.67 3.01 -10.34 2.02 -10 1 C-9.443125 1.61875 -8.88625 2.2375 -8.3125 2.875 C-5.93354822 5.06106379 -4.03642904 5.98785699 -1 7 C-0.67 4.69 -0.34 2.38 0 0 Z " fill="#286387" transform="translate(1067,298)"/>
<path d="M0 0 C-6.66380606 5.24597499 -13.29026652 8.6699795 -22 8 C-20.68 7.34 -19.36 6.68 -18 6 C-18.66 5.01 -19.32 4.02 -20 3 C-15.71 3 -11.42 3 -7 3 C-7 2.01 -7 1.02 -7 0 C-2.25 -1.125 -2.25 -1.125 0 0 Z " fill="#133458" transform="translate(464,448)"/>
<path d="M0 0 C1.95408752 3.90817504 2.22581756 4.89659195 1.9765625 8.984375 C1.925 9.91894531 1.8734375 10.85351562 1.8203125 11.81640625 C1.75585938 12.78449219 1.69140625 13.75257813 1.625 14.75 C1.56828125 15.73355469 1.5115625 16.71710938 1.453125 17.73046875 C1.31192448 20.154411 1.16054205 22.57727459 1 25 C1.66 25 2.32 25 3 25 C3 26.65 3 28.3 3 30 C6.96 29.505 6.96 29.505 11 29 C11 29.66 11 30.32 11 31 C7.37 31 3.74 31 0 31 C0 20.77 0 10.54 0 0 Z " fill="#0D365F" transform="translate(550,424)"/>
<path d="M0 0 C1 2 1 2 0.25 5.25 C-2.5 13.5 -2.5 13.5 -5 16 C-5.23287008 17.68183948 -5.41264166 19.3712416 -5.5625 21.0625 C-5.64628906 21.98160156 -5.73007812 22.90070313 -5.81640625 23.84765625 C-5.87699219 24.55792969 -5.93757813 25.26820313 -6 26 C-6.33 26 -6.66 26 -7 26 C-7.6235065 15.91997827 -6.38030152 8.04393314 0 0 Z " fill="#234165" transform="translate(387,353)"/>
<path d="M0 0 C0.66 0.33 1.32 0.66 2 1 C0.49131514 6.65756824 0.49131514 6.65756824 -2.0625 8.4375 C-4.40551313 9.98718856 -4.40551313 9.98718856 -4.75 13.6875 C-4.8325 14.780625 -4.915 15.87375 -5 17 C-5.99 17.33 -6.98 17.66 -8 18 C-8 17.01 -8 16.02 -8 15 C-8.66 14.67 -9.32 14.34 -10 14 C-6.7 9.38 -3.4 4.76 0 0 Z " fill="#12355C" transform="translate(933,414)"/>
<path d="M0 0 C0.66 0.33 1.32 0.66 2 1 C2 9.58 2 18.16 2 27 C-0.04321419 23.93517872 -0.26418841 23.14131165 -0.37890625 19.65625 C-0.41306641 18.82222656 -0.44722656 17.98820312 -0.48242188 17.12890625 C-0.50884766 16.26136719 -0.53527344 15.39382813 -0.5625 14.5 C-0.62252054 12.78111379 -0.68617165 11.06234951 -0.75390625 9.34375 C-0.77783447 8.58255859 -0.8017627 7.82136719 -0.82641602 7.03710938 C-0.93699377 4.79811929 -0.93699377 4.79811929 -2 2 C-1.34 1.34 -0.68 0.68 0 0 Z " fill="#226690" transform="translate(1069,252)"/>
<path d="M0 0 C1.29047171 3.87141514 0.6542778 5.31547216 -1 9 C-3.4375 11.125 -3.4375 11.125 -6 13 C-7.76323505 15.12603185 -7.76323505 15.12603185 -9 17 C-9.99 16.67 -10.98 16.34 -12 16 C-10.18890234 13.51980608 -8.37588708 11.04102038 -6.5625 8.5625 C-6.04623047 7.85544922 -5.52996094 7.14839844 -4.99804688 6.41992188 C-4.50498047 5.74638672 -4.01191406 5.07285156 -3.50390625 4.37890625 C-3.04830322 3.7557251 -2.5927002 3.13254395 -2.12329102 2.49047852 C-1 1 -1 1 0 0 Z " fill="#0F3258" transform="translate(946,396)"/>
<path d="M0 0 C0.33 0.66 0.66 1.32 1 2 C-2.35638226 6.24483639 -5.67462104 9.73193589 -10 13 C-10.66 13 -11.32 13 -12 13 C-12 13.99 -12 14.98 -12 16 C-13.60875 16.680625 -13.60875 16.680625 -15.25 17.375 C-17.88062317 18.50088537 -20.46000396 19.67920206 -23 21 C-19.93804513 17.73391481 -16.71774719 14.94533563 -13.1875 12.1875 C-8.43132274 8.44388221 -4.17025508 4.37993271 0 0 Z " fill="#1F5C84" transform="translate(969,273)"/>
<path d="M0 0 C0 0.66 0 1.32 0 2 C-8.25 2 -16.5 2 -25 2 C-25 1.34 -25 0.68 -25 0 C-16.51200811 -0.80542989 -8.46561098 -1.12298921 0 0 Z " fill="#1A3E62" transform="translate(521,454)"/>
<path d="M0 0 C0.33 0 0.66 0 1 0 C1 6.6 1 13.2 1 20 C-1 19 -1 19 -1.61328125 17.3515625 C-2.10887841 14.33793126 -2.17026637 11.42879961 -2.1875 8.375 C-2.20167969 7.22773438 -2.21585937 6.08046875 -2.23046875 4.8984375 C-2 2 -2 2 0 0 Z " fill="#0B2F5A" transform="translate(383,367)"/>
<path d="M0 0 C0.66 0.33 1.32 0.66 2 1 C2.625 3.5625 2.625 3.5625 3 6 C2.278125 6.391875 1.55625 6.78375 0.8125 7.1875 C-2.227326 9.14649898 -4.52127727 11.37963597 -7 14 C-7.66 13.34 -8.32 12.68 -9 12 C-6.03 8.04 -3.06 4.08 0 0 Z " fill="#1C6292" transform="translate(1024,287)"/>
<path d="M0 0 C4.37111376 4.10129192 7.49735832 8.49000087 10.69335938 13.53515625 C12.88445388 16.91061244 12.88445388 16.91061244 16.27734375 18.890625 C16.84582031 18.92671875 17.41429687 18.9628125 18 19 C17.34 19.66 16.68 20.32 16 21 C15.01 21 14.02 21 13 21 C13 20.34 13 19.68 13 19 C12.38125 18.773125 11.7625 18.54625 11.125 18.3125 C8.33779955 16.59099384 8.20322597 15.01665939 7 12 C5.83471891 10.24153283 4.62461213 8.51207534 3.375 6.8125 C0 2.21836735 0 2.21836735 0 0 Z " fill="#1B3D5F" transform="translate(949,354)"/>
<path d="M0 0 C0.33 0 0.66 0 1 0 C1 3.63 1 7.26 1 11 C-0.32 10.67 -1.64 10.34 -3 10 C-5.27144074 11.85432087 -5.27144074 11.85432087 -7 14 C-7.66 13.67 -8.32 13.34 -9 13 C-7.52485505 10.8304939 -6.0451561 8.66436293 -4.5625 6.5 C-4.14162109 5.87996094 -3.72074219 5.25992187 -3.28710938 4.62109375 C-2.21691863 3.06289602 -1.11120482 1.52921949 0 0 Z " fill="#133D64" transform="translate(975,357)"/>
<path d="M0 0 C4.50802601 1.25805377 7.4912812 2.90407165 11 6 C9.02 6 7.04 6 5 6 C5 5.34 5 4.68 5 4 C4.401875 4.33 3.80375 4.66 3.1875 5 C1 6 1 6 -2 6 C-2 7.98 -2 9.96 -2 12 C-3.1171875 10.265625 -3.1171875 10.265625 -4 8 C-3.3203125 5.859375 -3.3203125 5.859375 -2.125 3.75 C-1.73570312 3.04359375 -1.34640625 2.3371875 -0.9453125 1.609375 C-0.63335937 1.07828125 -0.32140625 0.5471875 0 0 Z " fill="#1B3D5E" transform="translate(387,423)"/>
<path d="M0 0 C0.99 0 1.98 0 3 0 C3 1.32 3 2.64 3 4 C2.38125 4.268125 1.7625 4.53625 1.125 4.8125 C-1.2995233 5.95556848 -1.2995233 5.95556848 -3 9 C-3.66 9 -4.32 9 -5 9 C-5.12375 9.78375 -5.2475 10.5675 -5.375 11.375 C-6 14 -6 14 -8 16 C-8.99 15.67 -9.98 15.34 -11 15 C-9.72954304 13.24972675 -8.45861894 11.49979256 -7.1875 9.75 C-6.12595703 8.28820312 -6.12595703 8.28820312 -5.04296875 6.796875 C-4.36878906 5.87390625 -3.69460938 4.9509375 -3 4 C-2.48050781 3.22140625 -1.96101562 2.4428125 -1.42578125 1.640625 C-0.95527344 1.09921875 -0.48476563 0.5578125 0 0 Z " fill="#1F5982" transform="translate(1012,304)"/>
<path d="M0 0 C-4.47442691 4.47442691 -13.2671158 4.84483045 -19.37109375 5.19140625 C-21.92163671 5.18808955 -24.45360043 5.14031181 -27 5 C-27 4.67 -27 4.34 -27 4 C-23.8148163 3.32193683 -20.62654387 2.65964849 -17.4375 2 C-16.54224609 1.80921875 -15.64699219 1.6184375 -14.72460938 1.421875 C-9.70738579 0.39270093 -5.12100455 -0.22479032 0 0 Z " fill="#D2EBF2" transform="translate(916,321)"/>
<path d="M0 0 C3.78963117 3.60082392 6.89719513 7.33461009 9.875 11.625 C10.29007813 12.19734375 10.70515625 12.7696875 11.1328125 13.359375 C12.3046875 15.0390625 12.3046875 15.0390625 14 18 C13.67 18.99 13.34 19.98 13 21 C12.45730469 20.24074219 11.91460938 19.48148437 11.35546875 18.69921875 C10.28232422 17.20841797 10.28232422 17.20841797 9.1875 15.6875 C8.47980469 14.70136719 7.77210938 13.71523438 7.04296875 12.69921875 C5.16567829 10.06549034 5.16567829 10.06549034 3.23828125 8.33203125 C2 7 2 7 2 4 C1.34 4 0.68 4 0 4 C0 2.68 0 1.36 0 0 Z " fill="#183657" transform="translate(992,410)"/>
<path d="M0 0 C2 3 2 3 2 11 C-3.61 11 -9.22 11 -15 11 C-15.33 10.34 -15.66 9.68 -16 9 C-14.89591797 9.01740234 -14.89591797 9.01740234 -13.76953125 9.03515625 C-12.79371094 9.04417969 -11.81789063 9.05320312 -10.8125 9.0625 C-9.36810547 9.07990234 -9.36810547 9.07990234 -7.89453125 9.09765625 C-5.14423487 9.00486622 -2.67520409 8.62111685 0 8 C0 5.36 0 2.72 0 0 Z " fill="#0D3764" transform="translate(897,349)"/>
<path d="M0 0 C1.32 0.33 2.64 0.66 4 1 C2.17778624 7.61242722 -0.05223604 13.80520671 -3 20 C-4.231394 16.30581799 -3.64432764 13.7943739 -3 10 C-2.34 10 -1.68 10 -1 10 C-0.67 6.7 -0.34 3.4 0 0 Z " fill="#123251" transform="translate(468,346)"/>
<path d="M0 0 C1.875 0.1875 1.875 0.1875 4 1 C4.66666667 2.66666667 5.33333333 4.33333333 6 6 C8.04105639 6.88693303 8.04105639 6.88693303 10 7 C10.12375 7.598125 10.2475 8.19625 10.375 8.8125 C10.95475985 11.26231348 10.95475985 11.26231348 13 14 C12.67 14.99 12.34 15.98 12 17 C10.37076065 14.91986415 8.7465453 12.83612026 7.125 10.75 C6.66480469 10.16347656 6.20460938 9.57695312 5.73046875 8.97265625 C3.49615028 6.09070923 1.4532826 3.37428833 0 0 Z " fill="#1B3F62" transform="translate(935,378)"/>
<path d="M0 0 C-0.33 1.32 -0.66 2.64 -1 4 C-2.32 3.67 -3.64 3.34 -5 3 C-5.33 3.99 -5.66 4.98 -6 6 C-8.64 6 -11.28 6 -14 6 C-13.67 5.01 -13.34 4.02 -13 3 C-10.8203125 2.05078125 -10.8203125 2.05078125 -8.125 1.3125 C-7.24070312 1.06113281 -6.35640625 0.80976563 -5.4453125 0.55078125 C-3 0 -3 0 0 0 Z " fill="#26648D" transform="translate(897,315)"/>
<path d="M0 0 C-0.33 0.99 -0.66 1.98 -1 3 C-2.32 2.34 -3.64 1.68 -5 1 C-6.65 3.31 -8.3 5.62 -10 8 C-10.99 7.67 -11.98 7.34 -13 7 C-11.6875 3.5625 -11.6875 3.5625 -10 0 C-6.30581799 -1.231394 -3.7943739 -0.64432764 0 0 Z " fill="#256A95" transform="translate(1055,296)"/>
<path d="M0 0 C0.33 0.99 0.66 1.98 1 3 C-2.60957611 6.2910841 -5.12637153 7.54663921 -10 8 C-10 6.68 -10 5.36 -10 4 C-6.7 2.68 -3.4 1.36 0 0 Z " fill="#246B97" transform="translate(1050,251)"/>
<path d="M0 0 C-1.25618074 3.76854223 -2.66014706 4.07958456 -6 6 C-6.33 6.66 -6.66 7.32 -7 8 C-8.65 8 -10.3 8 -12 8 C-12 6.68 -12 5.36 -12 4 C-10.3767313 3.3291288 -8.75132422 2.66342971 -7.125 2 C-6.22007813 1.62875 -5.31515625 1.2575 -4.3828125 0.875 C-2 0 -2 0 0 0 Z " fill="#206998" transform="translate(1039,256)"/>
<path d="M0 0 C0.66 0.33 1.32 0.66 2 1 C-3.75 5 -3.75 5 -6 5 C-6.309375 5.639375 -6.61875 6.27875 -6.9375 6.9375 C-8 9 -8 9 -9 10 C-10.66617115 10.04063832 -12.33388095 10.042721 -14 10 C-12.65429346 5.96288039 -10.13333486 5.10607031 -6.5625 3.25 C-5.96373047 2.92128906 -5.36496094 2.59257812 -4.74804688 2.25390625 C-3.20057838 1.4325176 -1.60232635 0.70844078 0 0 Z " fill="#1F5B85" transform="translate(942,295)"/>
<path d="M0 0 C0.33 0.66 0.66 1.32 1 2 C-0.45300898 4.14961616 -1.9120426 6.29467129 -3.375 8.4375 C-3.7875 9.04916016 -4.2 9.66082031 -4.625 10.29101562 C-7.7734375 14.88671875 -7.7734375 14.88671875 -10 16 C-9.43768609 12.06380262 -8.38314183 9.20807554 -6 6 C-5.01 6 -4.02 6 -3 6 C-2.690625 5.195625 -2.38125 4.39125 -2.0625 3.5625 C-1 1 -1 1 0 0 Z " fill="#173B5E" transform="translate(1001,362)"/>
<path d="M0 0 C6.93 0 13.86 0 21 0 C16.52092223 3.35930833 15.78329182 3.32749978 10.5 2.8125 C8.81390625 2.66748047 8.81390625 2.66748047 7.09375 2.51953125 C4 2 4 2 0 0 Z " fill="#234362" transform="translate(417,435)"/>
<path d="M0 0 C4.83256305 0.41421969 6.82679218 2.46413986 10 6 C10.99 5.01 11.98 4.02 13 3 C13 5.97 13 8.94 13 12 C10.42345585 9.42345585 7.86157931 6.85169212 5.375 4.1875 C3.17037709 1.66126212 3.17037709 1.66126212 0 2 C0 1.34 0 0.68 0 0 Z " fill="#1F5A7E" transform="translate(982,284)"/>
<path d="M0 0 C0 0.66 0 1.32 0 2 C-2.25 3.5 -2.25 3.5 -5 5 C-5.928125 5.556875 -5.928125 5.556875 -6.875 6.125 C-9.84932573 7.34972236 -12.81990362 7.6330658 -16 8 C-16.33 7.34 -16.66 6.68 -17 6 C-14.5433053 4.99580363 -12.08481647 3.99649499 -9.625 3 C-8.92632813 2.71382813 -8.22765625 2.42765625 -7.5078125 2.1328125 C-2.2265625 0 -2.2265625 0 0 0 Z " fill="#30709A" transform="translate(983,255)"/>
<path d="M0 0 C5.41538462 -0.36923077 5.41538462 -0.36923077 8.375 1.5 C8.91125 1.995 9.4475 2.49 10 3 C6.53777385 4.06723961 3.35960734 4.10173486 -0.25 4.0625 C-1.32765625 4.05347656 -2.4053125 4.04445313 -3.515625 4.03515625 C-4.33546875 4.02355469 -5.1553125 4.01195312 -6 4 C-6 3.67 -6 3.34 -6 3 C-4.02 2.67 -2.04 2.34 0 2 C0 1.34 0 0.68 0 0 Z " fill="#16537C" transform="translate(883,322)"/>
<path d="M0 0 C0.66 0.66 1.32 1.32 2 2 C0.68 2.99 -0.64 3.98 -2 5 C-1.67 6.32 -1.34 7.64 -1 9 C-2.98 8.34 -4.96 7.68 -7 7 C-6.3125 4.625 -6.3125 4.625 -5 2 C-2.375 0.6875 -2.375 0.6875 0 0 Z " fill="#1F6C9C" transform="translate(1018,264)"/>
<path d="M0 0 C0.66 0 1.32 0 2 0 C3.37535339 1.97133986 4.70211044 3.97681922 6 6 C7.0828125 7.299375 7.0828125 7.299375 8.1875 8.625 C9.90486316 10.87533794 10.59136342 12.24170306 11 15 C6.82616605 11.07168569 3.10605574 6.83520017 0 2 C0 1.34 0 0.68 0 0 Z " fill="#143152" transform="translate(925,363)"/>
<path d="M0 0 C0.33 0 0.66 0 1 0 C1 4.29 1 8.58 1 13 C-1.31 11.02 -3.62 9.04 -6 7 C-4.68 6.67 -3.36 6.34 -2 6 C-1.67 6.33 -1.34 6.66 -1 7 C-0.67 4.69 -0.34 2.38 0 0 Z " fill="#156B9F" transform="translate(1067,298)"/>
<path d="M0 0 C0.99 0.33 1.98 0.66 3 1 C-1.455 6.94 -1.455 6.94 -6 13 C-6.33 12.34 -6.66 11.68 -7 11 C-6.328125 9.16015625 -6.328125 9.16015625 -5.25 7.0625 C-4.90453125 6.37285156 -4.5590625 5.68320312 -4.203125 4.97265625 C-2.99605034 2.99352409 -1.70292617 1.56101565 0 0 Z " fill="#DCF2F9" transform="translate(1012,300)"/>
<path d="M0 0 C0.33 1.32 0.66 2.64 1 4 C-0.64666203 3.8864371 -2.29236082 3.75882619 -3.9375 3.625 C-4.85402344 3.55539062 -5.77054687 3.48578125 -6.71484375 3.4140625 C-7.84599609 3.20910156 -7.84599609 3.20910156 -9 3 C-9.33 2.34 -9.66 1.68 -10 1 C-6.56484998 0.37542727 -3.50935186 0 0 0 Z " fill="#15395F" transform="translate(423,404)"/>
<path d="M0 0 C6.93 0 13.86 0 21 0 C21 0.33 21 0.66 21 1 C19.91460937 1.06058594 18.82921875 1.12117188 17.7109375 1.18359375 C16.26561514 1.26806064 14.82030318 1.35270551 13.375 1.4375 C12.66214844 1.47681641 11.94929688 1.51613281 11.21484375 1.55664062 C7.08196318 1.80309681 3.07730976 2.23470053 -1 3 C-0.67 2.01 -0.34 1.02 0 0 Z " fill="#09274D" transform="translate(417,358)"/>
<path d="M0 0 C0.99 0.33 1.98 0.66 3 1 C2.67 1.66 2.34 2.32 2 3 C3.65 3.33 5.3 3.66 7 4 C7.33 5.65 7.66 7.3 8 9 C6.25 8.875 6.25 8.875 4 8 C0 2.77777778 0 2.77777778 0 0 Z " fill="#123458" transform="translate(987,447)"/>
<path d="M0 0 C4.28383762 1.3282086 5.9783526 2.82522516 8.3125 6.625 C8.82425781 7.44226563 9.33601562 8.25953125 9.86328125 9.1015625 C10.23839844 9.72804688 10.61351562 10.35453125 11 11 C10.34 11.66 9.68 12.32 9 13 C8.0234375 11.20963542 7.046875 9.41927083 6.0703125 7.62890625 C5.08589976 5.83381685 5.08589976 5.83381685 3 5 C3 4.34 3 3.68 3 3 C2.01 2.67 1.02 2.34 0 2 C0 1.34 0 0.68 0 0 Z " fill="#214467" transform="translate(982,399)"/>
<path d="M0 0 C0.33 0.66 0.66 1.32 1 2 C1.66 2 2.32 2 3 2 C3 2.66 3 3.32 3 4 C6.3 4.66 9.6 5.32 13 6 C13 6.33 13 6.66 13 7 C9.37 7 5.74 7 2 7 C0 3 0 3 0 0 Z " fill="#153251" transform="translate(739,449)"/>
<path d="M0 0 C1.45792884 -0.05399736 2.91642712 -0.09279177 4.375 -0.125 C5.18710937 -0.14820313 5.99921875 -0.17140625 6.8359375 -0.1953125 C9 0 9 0 11 2 C10 3 10 3 8.15234375 3.09765625 C6.1015625 3.06510417 4.05078125 3.03255208 2 3 C2 2.34 2 1.68 2 1 C1.34 0.67 0.68 0.34 0 0 Z " fill="#265E8A" transform="translate(849,324)"/>
<path d="M0 0 C2.31 0 4.62 0 7 0 C3.99422513 2.00384991 1.15022736 3.26119742 -2.1875 4.625 C-3.27417969 5.07101562 -4.36085938 5.51703125 -5.48046875 5.9765625 C-6.72763672 6.48316406 -6.72763672 6.48316406 -8 7 C-7.67 6.01 -7.34 5.02 -7 4 C-5.02 3.67 -3.04 3.34 -1 3 C-0.67 2.01 -0.34 1.02 0 0 Z " fill="#D9F2F9" transform="translate(1018,261)"/>
<path d="M0 0 C0.65234375 1.765625 0.65234375 1.765625 1 4 C0.00390625 5.921875 0.00390625 5.921875 -1.4375 7.75 C-2.14712891 8.67039062 -2.14712891 8.67039062 -2.87109375 9.609375 C-3.24363281 10.06828125 -3.61617187 10.5271875 -4 11 C-4.33 10.34 -4.66 9.68 -5 9 C-4.2578125 7.08984375 -4.2578125 7.08984375 -3.125 4.9375 C-2.75632812 4.22464844 -2.38765625 3.51179688 -2.0078125 2.77734375 C-1 1 -1 1 0 0 Z " fill="#163859" transform="translate(949,432)"/>
<path d="M0 0 C0.66 0.99 1.32 1.98 2 3 C0.02 5.97 -1.96 8.94 -4 12 C-5 8 -5 8 -3.6875 5.25 C-3.130625 4.5075 -2.57375 3.765 -2 3 C-1.34 3 -0.68 3 0 3 C0 2.01 0 1.02 0 0 Z " fill="#214467" transform="translate(955,423)"/>
<path d="M0 0 C1.32 0 2.64 0 4 0 C4 0.66 4 1.32 4 2 C4.7425 2.0825 5.485 2.165 6.25 2.25 C9.51221354 3.1396946 10.80954878 4.48503749 13 7 C9.88452559 6.32116957 7.14862279 5.25893098 4.25 3.9375 C3.45078125 3.57527344 2.6515625 3.21304687 1.828125 2.83984375 C1.22484375 2.56269531 0.6215625 2.28554688 0 2 C0 1.34 0 0.68 0 0 Z " fill="#286182" transform="translate(955,265)"/>
<path d="M0 0 C4.455 0.99 4.455 0.99 9 2 C9 2.66 9 3.32 9 4 C6.36 4 3.72 4 1 4 C0.67 2.68 0.34 1.36 0 0 Z " fill="#10365A" transform="translate(420,383)"/>
<path d="M0 0 C0.66 0 1.32 0 2 0 C0.6062718 4.43458973 -1.60582235 6.87378374 -5 10 C-4.67 8.35 -4.34 6.7 -4 5 C-3.01 4.67 -2.02 4.34 -1 4 C-0.26676204 1.98491642 -0.26676204 1.98491642 0 0 Z " fill="#123557" transform="translate(988,379)"/>
<path d="M0 0 C0.99 0 1.98 0 3 0 C2.35455571 3.48539917 0.89865603 6.02819057 -1 9 C-2.0326802 6.21176345 -2.04509293 5.1322726 -1.0625 2.25 C-0.711875 1.5075 -0.36125 0.765 0 0 Z " fill="#113458" transform="translate(650,422)"/>
<path d="M0 0 C0.66 0 1.32 0 2 0 C1.40072174 3.35595828 0.15377564 5.37801226 -2 8 C-2.99 7.67 -3.98 7.34 -5 7 C-4.21654285 5.82780457 -3.42297164 4.66236332 -2.625 3.5 C-2.18414063 2.8503125 -1.74328125 2.200625 -1.2890625 1.53125 C-0.65097656 0.77328125 -0.65097656 0.77328125 0 0 Z " fill="#153960" transform="translate(939,405)"/>
<path d="M0 0 C1.65 0 3.3 0 5 0 C4.979375 0.886875 4.95875 1.77375 4.9375 2.6875 C4.99286219 5.62169631 5.3305734 8.15493696 6 11 C3.13546142 7.58983503 1.65296434 4.09305456 0 0 Z " fill="#17375A" transform="translate(755,392)"/>
<path d="M0 0 C0.33 0.66 0.66 1.32 1 2 C0.67 2.66 0.34 3.32 0 4 C0.969375 4.28875 1.93875 4.5775 2.9375 4.875 C6 6 6 6 7 8 C2.94718288 6.77472971 -0.44360764 5.30119506 -4 3 C-3 1 -3 1 0 0 Z " fill="#306487" transform="translate(1011,267)"/>
<path d="M0 0 C1.231394 2.46278801 1.07159196 4.2795055 1 7 C-0.32 7.33 -1.64 7.66 -3 8 C-3 3.73173127 -2.62386487 3.06117568 0 0 Z " fill="#0D3055" transform="translate(911,445)"/>
<path d="M0 0 C1 3 1 3 -0.4375 6.1875 C-1.2109375 7.5796875 -1.2109375 7.5796875 -2 9 C-2.33 9 -2.66 9 -3 9 C-3.1875 5.625 -3.1875 5.625 -3 2 C-2.01 1.34 -1.02 0.68 0 0 Z " fill="#113355" transform="translate(695,380)"/>
<path d="M0 0 C0.99 0 1.98 0 3 0 C3 1.32 3 2.64 3 4 C1.1875 5.0625 1.1875 5.0625 -1 6 C-1.99 5.67 -2.98 5.34 -4 5 C-2.1875 2.5 -2.1875 2.5 0 0 Z " fill="#22608B" transform="translate(1012,304)"/>
<path d="M0 0 C0.33 1.32 0.66 2.64 1 4 C-0.0725 4.45375 -1.145 4.9075 -2.25 5.375 C-4.88062317 6.50088537 -7.46000396 7.67920206 -10 9 C-6.83047153 5.73991357 -3.60062011 2.77762123 0 0 Z " fill="#296289" transform="translate(956,285)"/>
<path d="M0 0 C2.50037734 2.17424117 3.43628586 3.73045798 4 7 C1.69 7 -0.62 7 -3 7 C-2.2575 6.38125 -2.2575 6.38125 -1.5 5.75 C0.43386092 3.87797662 0.43386092 3.87797662 0 0 Z " fill="#224261" transform="translate(767,449)"/>
<path d="M0 0 C2.97 0.495 2.97 0.495 6 1 C6 1.66 6 2.32 6 3 C2.86650268 4.04449911 2.01031744 3.93423645 -1 3 C-0.67 2.01 -0.34 1.02 0 0 Z " fill="#0F3459" transform="translate(447,390)"/>
<path d="M0 0 C2.9375 0.375 2.9375 0.375 6 1 C6.33 1.66 6.66 2.32 7 3 C6.34 3.66 5.68 4.32 5 5 C5 4.34 5 3.68 5 3 C3.02 3 1.04 3 -1 3 C-0.67 2.01 -0.34 1.02 0 0 Z " fill="#143A62" transform="translate(459,342)"/>
<path d="M0 0 C2.475 0.495 2.475 0.495 5 1 C3.70700306 3.88437779 2.34058637 5.87219421 0 8 C0.875 3.25 0.875 3.25 2 1 C1.34 0.67 0.68 0.34 0 0 Z " fill="#C9E9F2" transform="translate(1024,279)"/>
<path d="M0 0 C1.32 0 2.64 0 4 0 C4 0.66 4 1.32 4 2 C5.32 2.33 6.64 2.66 8 3 C5.21176345 4.0326802 4.1322726 4.04509293 1.25 3.0625 C0.5075 2.711875 -0.235 2.36125 -1 2 C-0.67 1.34 -0.34 0.68 0 0 Z " fill="#204065" transform="translate(393,450)"/>
<path d="M0 0 C0.66 0 1.32 0 2 0 C2 1.98 2 3.96 2 6 C0.68 6 -0.64 6 -2 6 C-1.125 1.125 -1.125 1.125 0 0 Z " fill="#0E3458" transform="translate(680,358)"/>
<path d="M0 0 C2.5 2.3125 2.5 2.3125 5 5 C5 5.99 5 6.98 5 8 C4.01 7.67 3.02 7.34 2 7 C0.8125 3.4375 0.8125 3.4375 0 0 Z " fill="#1A385C" transform="translate(943,345)"/>
<path d="M0 0 C1.32 0.66 2.64 1.32 4 2 C3.34 2 2.68 2 2 2 C1.67 3.32 1.34 4.64 1 6 C0.01 6 -0.98 6 -2 6 C-1.34 4.02 -0.68 2.04 0 0 Z " fill="#1F4263" transform="translate(688,339)"/>
<path d="M0 0 C2.64 0 5.28 0 8 0 C8 0.66 8 1.32 8 2 C5.39417629 2.93065133 4.35801776 3.14917407 1.75 2.0625 C1.1725 1.711875 0.595 1.36125 0 1 C0 0.67 0 0.34 0 0 Z " fill="#0B3662" transform="translate(444,451)"/>
<path d="M0 0 C0.66 0 1.32 0 2 0 C2 1.98 2 3.96 2 6 C1.34 6 0.68 6 0 6 C-0.66 6.66 -1.32 7.32 -2 8 C-1.47731534 5.23723823 -0.89130413 2.6739124 0 0 Z " fill="#143557" transform="translate(661,398)"/>
<path d="M0 0 C0.33 0 0.66 0 1 0 C0.6875 3.375 0.6875 3.375 0 7 C-0.99 7.66 -1.98 8.32 -3 9 C-2.44271087 5.65626525 -1.64826111 2.96687001 0 0 Z " fill="#0D355A" transform="translate(994,369)"/>
<path d="M0 0 C0.99 0.33 1.98 0.66 3 1 C1.25 5.875 1.25 5.875 -1 7 C-1.04254356 5.00045254 -1.04080783 2.99958364 -1 1 C-0.67 0.67 -0.34 0.34 0 0 Z " fill="#114165" transform="translate(1010,346)"/>
<path d="M0 0 C1.36125 0.37125 1.36125 0.37125 2.75 0.75 C2.75 1.08 2.75 1.41 2.75 1.75 C-0.55 2.41 -3.85 3.07 -7.25 3.75 C-4.05 -0.31153846 -4.05 -0.31153846 0 0 Z " fill="#0D2E52" transform="translate(400.25,344.25)"/>
<path d="M0 0 C0.66 0 1.32 0 2 0 C1.34 1.98 0.68 3.96 0 6 C-0.99 6 -1.98 6 -3 6 C-1.125 1.125 -1.125 1.125 0 0 Z " fill="#10446B" transform="translate(991,334)"/>
<path d="M0 0 C0.66 0.99 1.32 1.98 2 3 C1.01 3.99 0.02 4.98 -1 6 C-1.66 5.34 -2.32 4.68 -3 4 C-3 3.01 -3 2.02 -3 1 C-2.01 0.67 -1.02 0.34 0 0 Z " fill="#205F88" transform="translate(1024,328)"/>
<path d="M0 0 C0.66 0 1.32 0 2 0 C2.36923077 4.55384615 2.36923077 4.55384615 0.5 6.8125 C0.005 7.204375 -0.49 7.59625 -1 8 C-1 4.88742431 -0.82638376 2.89234315 0 0 Z " fill="#1E5F8B" transform="translate(1039,305)"/>
<path d="M0 0 C0.99 0.33 1.98 0.66 3 1 C3 1.66 3 2.32 3 3 C1.1875 4.0625 1.1875 4.0625 -1 5 C-1.99 4.67 -2.98 4.34 -4 4 C-2.68 2.68 -1.36 1.36 0 0 Z " fill="#DFF8FE" transform="translate(983,285)"/>
<path d="M0 0 C0.99 0 1.98 0 3 0 C3.75 1.75 3.75 1.75 4 4 C2.0625 6.25 2.0625 6.25 0 8 C-0.33 7.01 -0.66 6.02 -1 5 C0.4375 2.8125 0.4375 2.8125 2 1 C1.34 0.67 0.68 0.34 0 0 Z " fill="#20658F" transform="translate(1027,279)"/>
<path d="M0 0 C-0.33 0.99 -0.66 1.98 -1 3 C-3.5625 4.1875 -3.5625 4.1875 -6 5 C-6.33 4.01 -6.66 3.02 -7 2 C-2.25 0 -2.25 0 0 0 Z " fill="#34759E" transform="translate(1039,256)"/>
</svg>
